<?xml version="1.0" encoding="utf-8"?>
<!-- Generator: Adobe Illustrator 23.0.2, SVG Export Plug-In . SVG Version: 6.00 Build 0)  -->
<svg version="1.1" id="Layer_1" xmlns="http://www.w3.org/2000/svg" xmlns:xlink="http://www.w3.org/1999/xlink" x="0px" y="0px"
	 viewBox="0 0 1920 1080" style="enable-background:new 0 0 1920 1080;" xml:space="preserve">
<style type="text/css">
	.st0{display:none;}
	.st1{fill:#FFC312;}
	.st2{fill:#B53471;}
	.st3{fill:#ED4C67;}
	.st4{fill:#C4E538;}
	.st5{fill:none;stroke:#3B3987;stroke-width:0.75;stroke-miterlimit:10;}
	.st6{fill:none;stroke:#3B3987;stroke-width:0.75;stroke-miterlimit:10;stroke-dasharray:12.2308,12.2308;}
	.st7{fill:none;stroke:#3B3987;stroke-width:0.75;stroke-miterlimit:10;stroke-dasharray:12;}
	.st8{fill:#AECEF4;}
	.st9{fill:none;stroke:#68A9EA;stroke-width:10;stroke-linecap:round;stroke-miterlimit:10;}
	.st10{fill:none;stroke:#FFFFFF;stroke-width:10;stroke-linecap:round;stroke-miterlimit:10;}
	.st11{fill:#3030B5;}
	.st12{fill:#78BCFF;}
	.st13{fill:#191772;}
	.st14{fill:#F79F1F;}
	.st15{fill:#131356;}
	.st16{fill:#0E0E3D;}
	.st17{fill:#171756;}
	.st18{fill:#FFFFFF;}
	.st19{fill:#EBF6FF;}
	.st20{fill:#ABBACE;}
	.st21{fill:#9FB2CC;}
	.st22{fill:#5C6877;}
	.st23{fill:#B8C2D1;}
	.st24{fill:#65717F;}
	.st25{fill:#D7DDB3;}
	.st26{fill:#FFAEAE;}
	.st27{fill:#D3851E;}
	.st28{fill:#F2961C;}
	.st29{fill:#F28E0A;}
	.st30{fill:#DD8B1D;}
	.st31{fill:#FFA022;}
	.st32{opacity:0.54;}
	.st33{fill:#020060;}
	.st34{opacity:0.53;}
	.st35{opacity:0.63;}
	.st36{opacity:0.65;}
	.st37{opacity:0.64;}
	.st38{opacity:0.51;}
	.st39{opacity:0.33;}
	.st40{opacity:0.58;}
	.st41{fill:#1A187C;}
	.st42{fill:#262633;}
	.st43{fill:#00000A;}
	.st44{opacity:0.68;}
	.st45{opacity:0.61;}
	.st46{fill:#D69696;}
	.st47{opacity:0.35;}
	.st48{fill:#B58383;}
	.st49{fill:#F4ABAB;}
	.st50{fill:#212123;}
	.st51{opacity:0.26;}
	.st52{opacity:0.1;}
	.st53{fill:#050001;}
	.st54{fill:#56494C;}
	.st55{fill:#3A2E31;}
</style>
<g class="st0">
	
		<image style="display:inline;overflow:visible;enable-background:new    ;" width="2699" height="3223" xlink:href="57D0E3F5.jpeg"  transform="matrix(-0.2695 0 0 0.2695 1379.7656 33.3186)">
	</image>
</g>
<g id="Ikoonid">
	<g>
		<path class="st1" d="M1366,461.6c-18.3,0-33.4,15.1-33.4,33.4s15.1,33.4,33.4,33.4s33.4-15.1,33.4-33.4S1384.3,461.6,1366,461.6z
			 M1382.4,486.1l-19.8,19.8c-0.2,0.2-0.6,0.4-1.1,0.4s-0.9-0.2-1.1-0.4l-10.8-10.8c-0.6-0.6-0.6-1.7,0-2.4s1.7-0.6,2.4,0l9.5,9.5
			l18.7-18.7c0.6-0.6,1.7-0.6,2.4,0C1383,484.4,1383,485.5,1382.4,486.1z"/>
	</g>
	<path class="st2" d="M1407.9,347.1h-50.7c-1.7,0-3.1,1.4-3.1,3.1l0,0v7.3h22.7c4.5,0,8.1,3.6,8.1,8.1v24.5h1.7l17.9,18.4
		c0.2,0.2,0.4,0.2,0.6,0c0.1-0.1,0.2-0.2,0.1-0.4l-2.9-18.1h5.6c1.7,0,3.1-1.4,3.1-3.1l0,0V350
		C1411,348.5,1409.6,347.1,1407.9,347.1L1407.9,347.1z"/>
	<path class="st3" d="M1327,425.8c0,0.2,0.1,0.5,0.4,0.5c0.1,0,0.3,0,0.4-0.1l18.6-19.1h30.5c1.8,0,3.2-1.4,3.2-3.2l0,0v-38.3
		c0-1.8-1.4-3.2-3.2-3.2l0,0h-52.7c-1.8,0-3.2,1.4-3.2,3.2v38.3c0,1.8,1.4,3.2,3.2,3.2l0,0h5.8L1327,425.8z"/>
	<path class="st4" d="M1405.3,252.2c0,3.7,0,7.4,0,11.1c0.1,12.5-4.2,24.7-12,34.5c-6.4,8.5-15.3,14.7-25.5,17.7
		c-1.2,0.4-2.5,0.4-3.7,0c-11-3.3-19.7-9.9-26.5-19c-5.3-7.1-8.8-15.4-10.2-24.2c-0.4-2.8-0.7-5.5-0.7-8.3c-0.1-8.5,0-17.1-0.1-25.6
		c-0.1-0.6,0.3-1.3,1-1.4c12.5-5.5,25-11.1,37.5-16.7c0.6-0.3,1.3-0.3,1.8,0c12.4,5.6,24.9,11.1,37.3,16.6c0.7,0.2,1.1,0.9,1,1.6
		C1405.3,243,1405.3,247.6,1405.3,252.2z M1366,267.9v38.9c17.9-5.3,29.1-23.9,30.4-38.9c-0.2,0-0.5,0-0.7,0h-29
		c-0.3,0-0.5,0-0.8,0.1c0-0.3,0.1-0.5,0.1-0.8c0-12.2,0-24.5,0-36.7c0-0.3,0-0.5,0-0.9c-0.3,0.1-0.6,0.2-0.8,0.3
		c-9.7,4.3-19.3,8.6-29,12.8c-0.5,0.2-0.8,0.7-0.7,1.3c0,7.7,0,15.3,0,22.9c0,0.3,0,0.7,0.1,1.1h1.3L1366,267.9z"/>
	<g>
		<g>
			<line class="st5" x1="1099.4" y1="276.1" x2="1105.4" y2="276.1"/>
			<polyline class="st6" points="1117.6,276.1 1198.4,276.1 1258.3,276.1 			"/>
			<line class="st5" x1="1264.4" y1="276.1" x2="1270.4" y2="276.1"/>
		</g>
	</g>
	<polyline class="st7" points="1270.4,393.1 1198.4,393.1 1198.4,285.1 	"/>
	<polyline class="st7" points="1270.4,492.1 1198.4,492.1 1198.4,402.1 	"/>
</g>
<g id="Kivi">
	
		<image style="display:none;overflow:visible;enable-background:new    ;" width="1535" height="1476" xlink:href="57D0E3F7.jpeg"  transform="matrix(0.1774 0 0 0.1774 221.1293 640.4183)">
	</image>
</g>
<g id="Toote-Riba">
	<path class="st8" d="M1173.7,227.4H439.4c-6.6,0-12-5.4-12-12V77.1c0-6.6,5.4-12,12-12h734.3c6.6,0,12,5.4,12,12v138.4
		C1185.7,222,1180.3,227.4,1173.7,227.4z"/>
	<line class="st9" x1="652.5" y1="99.3" x2="1147.8" y2="99.3"/>
	<line class="st10" x1="653.9" y1="125.7" x2="1091" y2="125.7"/>
	<line class="st10" x1="654.1" y1="152.9" x2="911.1" y2="151.1"/>
</g>
<g id="Põõsas">
	<path class="st11" d="M427.2,169c1.5-0.3,3.8-0.6,6.5-0.3c12.5,1.5,16.3,14.5,24.4,20.1c14.6,10,30.1-13,67.1-16
		c18.9-1.5,26.8,3.5,65.3,1.8c9.4-0.4,20.4-1.3,23.6-7.9c2.5-5.4-0.5-13.6-5.7-18.3c-10.6-9.6-24.1,0.7-36.4-8.6
		c-8.7-6.6-5.1-14.1-14.4-19.8c-7.4-4.6-10.9-0.6-27.1-3.6c-15.7-2.9-17-7.5-25.8-6.2c-10.5,1.6-10.1,8.4-21.7,10.6
		c-10.6,2-13.9-3.1-23.6,0.6c-1.5,0.6-10.7,4-12,10.7c-0.8,4.2,2.2,6.2,1.8,9.8c-0.4,3.9-5,8.8-22,13.3L427.2,169L427.2,169z"/>
</g>
<g id="Maja">
	
		<image style="display:none;overflow:visible;opacity:0.5;enable-background:new    ;" width="4800" height="2896" xlink:href="57D0E3F5.jpeg"  transform="matrix(9.012431e-02 0 0 9.012431e-02 336.5678 0)">
	</image>
	<path class="st12" d="M427.4,167.4l38.7-1.8l158.2-0.6l0,0c3.7,0,5.4,4.6,2.5,7l-67.2,55.4h-116l-6.2-0.2l-10.1-12.1v-47.7H427.4z"
		/>
	<polygon class="st13" points="599.4,166.7 599.4,127 508.5,127 522.2,165.7 	"/>
	<polygon class="st13" points="608.3,162.7 608.9,131.4 599.4,129.7 599.4,166.7 	"/>
	<polygon class="st1" points="468.4,165.7 512.3,166.6 489.2,97.7 	"/>
	<polygon class="st14" points="469.5,165 506.6,148 512.7,165.7 	"/>
	<polygon class="st15" points="490.5,98.4 519.2,101.5 527.4,127.2 509,127.3 522.2,165.7 513.6,166.6 	"/>
	<path class="st1" d="M571.8,138.2h9c0.4,0,0.7,0.3,0.7,0.7v25.5c0,0.4-0.3,0.7-0.7,0.7h-8.5c-0.4,0-0.7-0.3-0.7-0.7l-0.5-25.5
		C571.1,138.5,571.4,138.2,571.8,138.2z"/>
	<path class="st1" d="M533.3,150.2v-11.5c0-0.3,0.2-0.5,0.5-0.5h1.8c0.3,0,0.5,0.2,0.5,0.5v11.4c0,0.3-0.2,0.5-0.5,0.5l-1.8,0.1
		C533.6,150.7,533.3,150.4,533.3,150.2z"/>
	<path class="st1" d="M529.5,138.6v4.9c0,0.2,0.2,0.4,0.4,0.4h1.7c0.2,0,0.4-0.2,0.4-0.4v-4.9c0-0.2-0.2-0.4-0.4-0.4h-1.7
		C529.7,138.2,529.5,138.3,529.5,138.6z"/>
	<path class="st1" d="M529.9,145.3h2.3c0.2,0,0.4,0.2,0.4,0.4v4.4c0,0.2-0.2,0.4-0.4,0.4h-2.3c-0.2,0-0.4-0.2-0.4-0.4v-4.4
		C529.5,145.5,529.7,145.3,529.9,145.3z"/>
	<path class="st14" d="M574.3,148.9h2.1c0.3,0,0.5-0.2,0.5-0.5V141c0-0.3-0.2-0.5-0.5-0.5h-2.1c-0.3,0-0.5,0.2-0.5,0.5v7.5
		C573.8,148.7,574,148.9,574.3,148.9z"/>
	<polygon class="st14" points="572.3,148.9 572.3,140.5 571.1,140.5 571.3,148.9 	"/>
	<path class="st14" d="M573.8,139.5h3.4l-0.3-0.8c-0.1-0.3-0.4-0.5-0.7-0.5h-2.4V139.5z"/>
	<polygon class="st14" points="571.1,139.5 572.3,139.5 572.3,138.2 571.1,138.2 	"/>
</g>
<g id="Maja-Detail">
	<polygon class="st16" points="468,162 489.2,96.8 489.2,99.5 469.3,165.7 466.2,165.7 	"/>
	<polygon class="st17" points="599.7,129.7 608.9,131.9 612.4,131.9 610.7,130.8 601.7,128.8 	"/>
	<polygon class="st16" points="518.7,100.8 489.2,96.8 489.2,99.5 519.8,102.5 	"/>
	<polygon class="st16" points="512.3,166.6 489.2,98.4 490.5,98.4 513.6,166.6 	"/>
	<polygon class="st16" points="507.5,127 508.3,128.8 602.3,129.7 602.3,127 	"/>
	<polygon class="st16" points="612.4,130.2 612.4,131.9 602.3,129.7 602.3,127 	"/>
	<polygon class="st16" points="599.4,166.7 608.3,162.7 608.3,164.3 601.7,167 	"/>
	<polygon class="st16" points="477.7,135.4 501.8,135.4 503,138.8 477.1,138.8 	"/>
	<polygon class="st16" points="485.9,109.2 485.9,136.3 484.9,136.3 484.9,110.9 	"/>
	<polygon class="st16" points="485.9,138.5 485.9,166 484.9,166 484.9,138.2 	"/>
	<polygon class="st16" points="469,165 512.7,165.7 512.7,166.7 469.3,165.7 	"/>
	<polygon class="st16" points="492.9,138.8 492.9,165.7 493.6,165.7 493.6,138.2 	"/>
	<polygon class="st16" points="493.6,135.9 493.6,109.9 492.9,108.9 492.9,136.7 	"/>
	<polygon class="st16" points="522,165 521.1,165.8 601.7,167 599.4,166.7 	"/>
	<g>
		<path class="st18" d="M496.7,103.5c0.9-0.1,1.8-0.1,2.6-0.1l2.6,0.1l5.3,0.3l5.3,0.3l2.6,0.1c0.9,0.1,1.8,0.2,2.6,0.4
			c-0.9,0.1-1.8,0.1-2.7,0.1l-2.6-0.1l-5.3-0.3L502,104l-2.6-0.1C498.4,103.8,497.5,103.7,496.7,103.5z"/>
	</g>
	<g>
		<path class="st1" d="M503,109.2c0.5-0.2,1-0.4,1.5-0.5h1.5l3-0.1l3-0.1h1.5c0.5,0.1,1,0.3,1.5,0.5c-0.5,0.2-1,0.4-1.5,0.5H512
			l-3,0.1l-3,0.1h-1.5C504,109.5,503.5,109.4,503,109.2z"/>
	</g>
	<g>
		<path class="st18" d="M501.1,112.1c0.7-0.2,1.3-0.3,2-0.4h2l3.9-0.1l3.9-0.1h2c0.7,0.1,1.3,0.2,2,0.3c-0.7,0.2-1.3,0.3-2,0.4h-2
			l-3.9,0.1l-3.9,0.1h-2C502.4,112.3,501.7,112.2,501.1,112.1z"/>
	</g>
	<g>
		<path class="st18" d="M500.4,120.9c0.5-0.2,1-0.3,1.5-0.4l1.5-0.2l3-0.3l3-0.3l1.5-0.2c0.5,0,1,0,1.5,0.1c-0.5,0.2-1,0.3-1.5,0.4
			l-1.5,0.2l-3,0.3l-3,0.3l-1.5,0.2C501.4,120.9,500.9,120.9,500.4,120.9z"/>
	</g>
	<ellipse class="st18" cx="508.4" cy="122.2" rx="0.6" ry="0.5"/>
</g>
<g id="Taust">
	<path class="st19" d="M1719,787.4c0,128.7-271.1,233-605.5,233S508,916.1,508,787.4c0-31.3,28.2-130.9,56.3-165.2
		c119.7-146.5,348.1-127.5,549.2-67.8c100,29.7,74.5,88.4,232.4,119.5C1495.1,703.4,1719,688.8,1719,787.4z"/>
</g>
<g id="Alus">
	<polygon class="st20" points="933.9,688.4 1185.7,733.5 1127.6,759.9 926,729.1 	"/>
	<path class="st21" d="M1391.6,845.3v-26.8c0-10.4-7.6-19.3-17.8-20.9l-200.4-32.3l-2.9,59L1391.6,845.3z"/>
	<polygon class="st22" points="933.1,726.4 933.1,642.8 829.2,667.5 638.2,726.4 642.6,818.9 	"/>
	<path class="st23" d="M642.3,594.2L933,642.8l-294.9,88L606,669.6c-3.9-7.4-4.3-16.2-1-24l16.8-40.1
		C625.3,597.5,633.7,592.8,642.3,594.2z"/>
	<path class="st23" d="M933.1,726.4l194.5,33.4L836.3,902.5L665.5,914c-20.5,1.4-38-14.8-38.2-35.3l-0.4-37.6
		c-0.1-10.1,6.4-19,16-22.1L933.1,726.4z"/>
	<path class="st22" d="M1118.8,850.5l8.8-90.7L839.2,900c-8.5,4.1-8.2,16.2,0.4,20l18.2,8.1c3.8,1.7,7.9,2.3,12,1.9l131-13.5
		L1118.8,850.5z"/>
	<path class="st23" d="M1391.6,845.3l-202.4-35.2l-203.5,113c-6.1,3.4-3.3,12.8,3.7,12.2l59.9-4.7l198-14.1h128.4
		c18.5,0,31.8-17.8,26.5-35.5L1391.6,845.3z"/>
	<polygon class="st24" points="1185.7,733.5 1182.3,813.9 1118.4,849.2 1127.6,759.9 	"/>
</g>
<g id="Sokid">
	<path class="st25" d="M1149.6,668.4c-1.5-9.5-14.1-10-21.1-22.9c-0.5-1-1.5-3-3.5-3.5c-4-1.2-10.4,3.9-11.4,9.7
		c-0.2,1.3-0.3,3.2,2.6,9.7c3.6,7.8,6.4,14.1,13.2,19.4c3.6,2.8,6.3,4.9,9.7,4.4C1145,684.2,1150.7,675.5,1149.6,668.4z"/>
	<path class="st25" d="M1241.1,790.7c-0.9-3.1-3.2-6.4-16.7-14.1c-10.1-5.7-11.5-5.4-17.6-9.7c-7-4.9-6.7-6.4-9.7-7
		c-9.6-2.1-24.5,10.6-26.4,25.5c-1,8.1,2.1,14.6,3.5,17.6c5.6,11.7,15.8,16.8,19.4,18.5c5.6,2.7,18.3,8.8,30.8,2.6
		c13.4-6.6,16.1-22.1,16.7-25.5C1241.6,795.9,1242,793.6,1241.1,790.7z"/>
</g>
<g id="Sussid">
	<path class="st18" d="M1351.2,832.1c0.7,0.8,4.6,5.8,3.5,11.4c-0.6,3.1-2.5,5.1-4.4,7c-6.3,6.3-9.5,9.4-16.7,13.2
		c-11.7,6.1-27.3,14.3-47.5,13.2c-15.6-0.8-14.8-6.1-42.2-11.4c-6-1.2-14.3-2.3-30.8-4.4c-28.2-3.7-35.1-3.8-38.7-9.7
		c-1.3-2.2-0.9-9.4,0-23.8c0.9-14.7,1.8-18.3,4.4-19.4c2.6-1.1,6,1.3,10.6,4.4c5.5,3.7,5.3,5.5,8.8,7c5.4,2.4,12.2,1.1,16.7-1.8
		c4.6-3,3.5-5.5,8.8-12.3c7.6-9.7,16.1-12.7,15-16.7c-0.5-1.8-2.3-1.6-4.4-5.3c-0.9-1.6-2.1-3.7-1.8-6.2c0.4-3,2.9-6.2,5.3-6.2
		c1.6,0,2,1.5,6.2,6.2c1.6,1.8,3.2,3.6,5.3,5.3c2.9,2.4,5.6,3.7,7,4.4c16.2,7.8,24.4,11.7,30.8,16.7c7.7,6,5.8,7.3,12.3,11.4
		c3.7,2.3,7.2,3.7,22.9,7C1341.7,826.6,1347,826.8,1351.2,832.1z"/>
	<path class="st18" d="M1141.7,659.6c-0.2-0.5,4-1.3,5.3-4.4c0.5-1.2,0.1-1.5,0-5.3c-0.1-3.5-0.1-5.3,0.9-6.2c1.6-1.4,4.7-0.2,5.3,0
		c0.9,0.3,2.7,1,3.5,2.6c1.5,2.9-1.8,5-0.9,8.8c0.6,2.4,2,2.3,4.4,6.2c1.7,2.8,1.9,4.5,2.6,6.2c1.7,4,4.6,4.6,12.3,9.7
		c6.2,4.1,7.2,5.7,19.4,14.1c1.7,1.2,2.8,1.9,4.4,2.6c5.6,2.6,10.1,1.7,15,1.8c5.1,0,15.2,0.1,20.2,6.2c3.5,4.2,4.4,11.1,1.8,15.8
		c-1.3,2.4-3.3,3.8-7.9,6.2c-6.7,3.3-14.1,7-26.4,8.8c-3.8,0.6-10.8,1.6-19.4,0.9c-8.8-0.7-35.4-2.8-47.5-22.9
		c-7.5-12.4-9.2-27.6-5.3-29.9c1.6-1,3.5,0.6,7-0.9c2.1-0.9,2-1.7,6.2-5.3c3.1-2.7,4.5-3.4,7-6.2c2.5-2.7,2.7-3.6,2.6-4.4
		c-0.1-2.1-2.5-3.8-4.4-4.4C1144.8,658.6,1141.8,660,1141.7,659.6z"/>
</g>
<g id="Käed">
	<path class="st26" d="M1063.3,533.7c1.7-2,5.7-6.7,10.6-6.2c3,0.3,5.1,2.5,5.3,2.6c2,2,1.8,3.9,2.6,6.2c1.5,3.8,4.2,3.7,14.1,10.6
		c6.2,4.3,7.7,6.1,8.8,7.9c1.1,1.8,1.6,3.6,2.6,7c1.7,5.8,2.6,8.7,1.8,11.4c-1.1,3.5-4.4,7-4.4,7c-2.9,5.6-4.4,7-4.4,7
		c-1.6,1.5-3.2,2.2-4.4,2.6c-3.9,1.6-13.2,3.3-22-0.9c-12.4-5.9-15.7-19.7-16.7-23.8C1054.5,554.1,1056.6,541.6,1063.3,533.7z"/>
</g>
<g id="Püksid">
	<path class="st27" d="M1129.4,643.7c3.2-6.8-14.7-18.7-25.5-38.7c-3.3-6.2-5.2-11.6-6.2-15c0.1-1.3-4.5,1.3-5.7,1.3
		c-3.5,0-3.5-0.9-7.5-0.4c-19.1,2.1,17.1,69.1,29,66.9c0.9-0.2,4.1-1.1,7-3.5c1.8-1.5,3.3-3.3,6.2-7
		C1128.4,645.1,1129.2,644,1129.4,643.7z"/>
	<path class="st28" d="M1197.1,758.1c0.4,1.9,1.1,5.8,0,10.6c-1.7,7.5-6.1,9.8-16.7,21.1c-11.2,12-11.2,14.7-17.6,17.6
		c-2.4,1.1-10.2,4.6-17.6,1.8c-5.1-2-6.2-5.4-13.2-13.2c-5.5-6.2-8.5-8.1-14.1-13.2c-11.3-10.4-13.9-16.1-32.6-37.8
		c-13.8-16.1-20.5-22.5-30.8-36.1c-6.5-8.6-9.8-14-11.4-16.7c-3.8-6.4-8.8-15.8-8.8-15.8c-1.1-0.7-3.9-2.6-5.3-6.2
		c-2.1-5.2,0.1-10.3,0.8-11.3c0,0,0,0,0.1-0.1c0.6-1.6-9.6-6.9-11.4-7.9c-12.7-6.6-35.7-0.2-43.1,1.8c0,0-32,8.4-68.7,8.8
		c-27.1,0.3-29.2-4.5-52.8-1.8c-12.1,1.4-22.5,3.9-24.6,0c-2-3.8,5.7-10.1,14.1-22.9c3.2-4.9,2.9-17.3,10.1-33.9
		c7.9-18.1,19.3-32.6,31.2-47.1c2.4-2.9,6.7-7.7,13.2-8.8c5.5-0.9,9.9,1.3,13.2,2.6c10.3,4.2,15.2,1.7,32.6,2.6
		c21.5,1.2,21.7,5.4,45.8,7.9c19.7,2.1,18.4-0.9,35.2,0.9c19.1,2,40.1,4.3,55.4,19.4c10.6,10.4,10,19,17.6,39.6
		c5,13.5,23.7,64.3,64.3,95.9C1168.9,721.3,1193.6,739.5,1197.1,758.1z"/>
	<path class="st29" d="M1050.1,480c2.6,15.2,7.9,25.3,12.3,31.7c5,7.3,9.6,13.7,7.5,17.2c-0.5,0.7-3,1.5-4.4,1.8
		c-1.1,0.2,1.4,0.5-0.4,0.4c-13-0.1-22-4.4-22-4.4c-21.4-10.2-28.6-3.6-48.4-15c-6.6-3.8-22.9-13.5-31.7-32.6
		c-7.5-16.3-8.7-37.7-1.8-41.4c2-1.1,3.2,0.1,8.8,0c8-0.2,13.1-2.8,17.6-4.4c2.7-1,19.1-6.5,32.6-0.9c9.7,4,14.7,12.5,20.2,22
		C1046.3,464.5,1048.9,473.8,1050.1,480z"/>
	<path class="st30" d="M900.5,512.6c-0.2,3.2,0,7.6,1.8,12.3c7,18.9,32,24.8,30.8,28.2c-0.5,1.6-5.9-0.4-17.6,0
		c-8.2,0.3-17.9,0.6-29,4.4c-4.7,1.6-5.6,2.5-7,1.8c-6.3-3.1-3.5-27,7.9-44c4-5.9,10.8-13.6,13.2-12.3
		C902.2,503.7,901.4,508.5,900.5,512.6z"/>
	<path class="st28" d="M782.6,656c-6.5,7.9-32.5-3-42.2-7.9c-12.1-6.1-19.7-13.4-22.9-16.7c-1.5-1.6-24.4-25.6-18.5-35.2
		c5.4-8.7,33.7-4.6,53.7,8.8C774.8,619.8,789.3,647.9,782.6,656z"/>
</g>
<g id="Püksi-Detail">
	<path class="st14" d="M1172,799.1c-8.3-0.4-12.5-9.4-25.5-29.9c-14.1-22.3-3.5-2.6-34.3-49.3c-25.5-38.6-38.3-58.1-40.5-67.8
		c-1-4.4-2.5-12.7-8.8-21.1c-7.9-10.6-18.9-15.2-25.5-17.6c-63.6-23.1-132.9-15-132.9-15c-31.9,3.8-44.5,9.2-50.2,1.8
		c-9.3-12.3,7.9-48.9,29.9-53.7c8.9-2,11.1,3,33.4,5.3c14.9,1.5,17.8-0.3,34.3,0.9c14.6,1,17.2,2.8,34.3,5.3
		c34.6,5.1,36.4-0.2,57.2,5.3c16.1,4.2,31.1,8.1,39.6,21.1c6.2,9.4,3.2,14.9,12.3,28.2c7.2,10.5,11.3,10.5,15,19.4
		c4.6,11.1-0.9,13.9,3.5,25.5c2.1,5.6,3.6,5.7,15.8,22.9c7.6,10.7,6.5,10,9.7,14.1c7.8,10.1,12,11.5,29,26.4
		c18.6,16.3,22,21.9,23.8,25.5c2.3,4.7,6.2,12.3,5.3,22C1196.2,783.6,1183.5,799.6,1172,799.1z"/>
	<path class="st14" d="M1072.6,529.7"/>
	<path class="st14" d="M1072.6,527.1c-7.9-11-10.3-16.1-13.2-22c-1.9-3.9-4.2-4.9-5.3-11.4c-0.4-2.4-3.7-21.4-14.1-38.7
		c-6-9.9-12.1-20.1-23.8-23.8c-5.5-1.7-10.4-1.2-20.2,0c-17.5,2.1-26.2,3.1-31.7,8.8c-13.6,14.3-2.8,51.1,12.3,55.4
		c3.2,0.9,10-0.6,23.8-3.5c11.7-2.5,15.2-4,18.5-1.8c4,2.7,2.3,7.3,6.2,18.5c1.6,4.6,3.8,10.9,8.8,16.7c2.6,3,10.8,6.3,22.9,7
		c2.3,0.1,5.2,3.2,6.2,1.8c1.8-2.6,5.5-5,7.9-6.2C1072.2,527.3,1073.8,528.7,1072.6,527.1z"/>
	<path class="st31" d="M1016.3,431.2c-3.9-2-9.4-1.4-20.2,0c-17.6,2.2-26.4,3.3-31.7,8.8c-13.6,14.3-2.8,51.1,12.3,55.4
		c5.1,1.5,7.3-1.7,23.8-3.5c13.3-1.4,10.6-2.6,15.8-2.6C1032.9,489.2,1033.1,439.9,1016.3,431.2z"/>
</g>
<g id="Jope">
	<path class="st13" d="M1073.9,560.1c-0.2-5.3-1.4-12.4-5.3-19.4c-2-3.6-4.3-7.5-8.8-9.7c-3.3-1.6-5.3-1-9.7-1.8
		c-6.1-1-9.5-3.3-15-6.2c-13.1-6.8-13.7-3.8-27.3-10.6c-3.5-1.7-9.1-5.3-20.2-12.3c-7.7-4.9-9.1-6-10.6-7.9
		c-4.3-5.7-3.5-11.2-4.4-22c-0.1-1.4-1.5-9.7-4.4-26.4c-4.2-24.7-4.8-21.9-5.3-29c-0.9-13.1,0.9-24,2.6-34.3
		c2.7-16.4,5-18.3,4.4-27.3c-0.9-12.6-6.3-22.1-7.9-24.6c-10.3-16.9-26.1-21.7-24.6-31.7c0.4-2.5,1.4-2.8,1.8-6.2
		c0.2-2,0.3-7.5-6.2-16.7c-6-8.5-10.4-14.7-18.5-16.7c-11.8-3-25,4.2-28.2,7.9c-0.4,0.4-1.5,1.9-3.5,2.6c-2.5,1-4.8,0.3-6.2,0
		c-8.8-1.7-20.3,7.7-23.8,10.6c-0.6,0.5-2.1,1.8-4.4,2.6c-3,1.2-5.2,0.8-7,0.9c-7.3,0.4-8.6,8-19.4,12.3c-2.8,1.1-2.1,0.3-6.2,1.8
		c-7.7,2.7-14.6,5.1-16.7,10.6c-0.5,1.4-1.5,4.9-3.5,7.9c-0.3,0.4-0.8,1.2-1.8,1.8c-1.8,1.1-3.7,0.9-4.4,0.9
		c-4.7-0.2-12.5,5.8-14.1,12.3c-0.7,2.9-0.2,6.1-2.6,7.9c-0.7,0.6-1.4,0.8-1.8,0.9c-4.2,1.4-9.5,6.2-12.3,10.6c0,0-1,1.6-4.4,14.1
		c-6.4,3.5-9.2,7.5-10.6,10.6c-1.9,4.3-3.9,13.4-6.2,18.5c-0.2,0.5-0.5,1.1-0.9,1.8c-1.7,3-3.7,4.7-4.4,5.3c-0.5,0.4-8.2,7.4-7.9,15
		c0.1,2.7,1.2,4.5,0,7c-0.7,1.6-2.1,3-2.6,3.5c-1.6,1.6-3.1,2.4-3.5,2.6c-4.4,2.6-9.9,11.7-7.9,18.5c0.8,2.7,2.7,4.5,1.8,6.2
		c-0.7,1.2-2.2,1.3-3.5,1.8c-5.9,1.9-11,10.6-10.6,17.6c0.2,3.2,1.5,5.5,0,7.9c-0.9,1.5-2.3,1.9-3.5,2.6
		c-6.1,3.5-10.5,13.7-8.8,21.1c0.6,2.6,2,5.1,0.9,6.2c-0.8,0.7-2-0.1-3.5,0c-5.1,0.3-11.7,11.2-9.7,20.2c0.8,3.6,3,6.9,1.8,7.9
		c-0.7,0.6-1.8-0.2-3.5,0c-2.9,0.3-4.8,3.2-6.2,5.3c0,0-2.6,4-5.3,15.8c0.5,0.6,1.1,1.4,0.9,1.8c-0.3,0.5-1.5-0.1-2.6,0
		c-2.8,0.3-5.7,4.9-5.3,8.8c0.2,2.4,1.6,4,6.2,7.9c5.9,5.1,8.8,7.6,12.3,9.7c10.8,6.3,21.8,9.6,27.3,11.4
		c16.2,5.5,26.9,13.8,42.2,25.5c15.4,11.8,14.7,14.8,25.5,22.9c0,0,27.5,21.1,52.8,21.1c5.6,0,7.5-2.2,7.9-2.6
		c1.9-2.2,1.3-4.8,1.8-7.9c0.9-5.9,5.1-9.1,8.8-13.2c2.9-3.1,6-9.1,12.3-21.1c14.4-27.3,9.3-33,21.1-48.4c3.2-4.2,6.8-7.9,9.7-15
		c1.5-3.7,2.5-9,4.4-19.4c2.3-12.5,2.6-16.6,6.2-22c2.2-3.4,6.1-7.8,7.9-7c1.3,0.6,0.8,3.4,0.9,6.2c0.3,12.2,10.1,21.6,13.2,24.6
		c5.4,5.2,10.9,7.8,13.2,8.8c7,3,12.8,3.2,20.2,3.5c17.9,0.7,25.3-3.6,34.3,1.8c1.6,1,2.2,1.6,4.4,2.6c6.6,3.2,12.7,2.8,18.5,2.6
		c6.5-0.2,14.7-0.8,22.9,0c15.4,1.6,29.5,7.5,34.3,7.9c0.5,0,1.9,0.1,3.5,0.9c1.6,0.8,2,1.7,2.6,1.8
		C1068.9,571.7,1070.7,569.6,1073.9,560.1z"/>
</g>
<g id="Jope-Detail">
	<g class="st32">
		<path class="st33" d="M848.2,281.4c2.8,0.2,5.5,0.9,8.1,1.8c1.3,0.5,2.6,1,3.9,1.6c1.3,0.6,2.5,1.3,3.6,2.1
			c2.3,1.6,4.3,3.6,6.3,5.4c1,0.9,2.1,1.8,3.1,2.7c1,1,2.1,1.8,3.1,2.8c2.1,1.8,4,3.9,5.6,6.2c1.6,2.3,3.2,4.6,4.4,7.1
			c2.4,5.1,3.9,10.6,4.1,16.1c0,0.1-0.1,0.2-0.1,0.2c-0.1,0-0.1,0-0.1-0.1c-1.1-2.6-2-5.1-3.2-7.5c-1.1-2.5-2.3-4.9-3.5-7.2
			c-1.2-2.4-2.5-4.7-3.9-7c-0.7-1.1-1.4-2.3-2.2-3.3c-0.7-1.1-1.5-2.2-2.3-3.3c-0.4-0.6-0.8-1.1-1.3-1.6c-0.4-0.5-0.9-1-1.3-1.5
			c-1-0.9-2-1.9-3-2.7c-2.2-1.7-4.6-2.8-7-4c-1.2-0.6-2.4-1.2-3.5-1.9c-1.2-0.6-2.4-1.3-3.6-1.9c-2.4-1.2-4.8-2.4-7.3-3.6
			c-0.1,0-0.1-0.1-0.1-0.2C848.1,281.4,848.1,281.4,848.2,281.4z"/>
	</g>
	<g class="st34">
		<path class="st33" d="M824,293.3c2.6,1.4,4.9,3.1,7.2,4.9c1.1,0.9,2.2,1.9,3.2,2.9c1.1,1,2,2.1,2.9,3.2c1.8,2.2,3.3,4.7,5.1,7
			c1.7,2.3,3.6,4.5,5.4,6.7c1.9,2.2,3.6,4.5,5.2,6.9c1.6,2.4,3.1,4.9,4.4,7.5c2.5,5.2,4.4,10.7,5.4,16.4c0,0.1,0,0.2-0.1,0.2
			s-0.1,0-0.2-0.1c-2.8-5.1-5.3-10.1-7.9-15.1c-1.3-2.5-2.6-5-3.9-7.5l-4.1-7.4c-1.4-2.5-3-4.9-4.8-7c-1.9-2.2-4.1-4-6.2-5.9
			c-1-1-2-2-3-3c-0.5-0.5-1-1-1.5-1.5l-1.5-1.5c-1.9-2.1-3.9-4.1-5.8-6.4c-0.1-0.1,0-0.2,0-0.2C823.9,293.3,824,293.3,824,293.3z"/>
	</g>
	<g class="st35">
		<path class="st33" d="M795.9,314.4c3.1,2.2,6,4.7,8.7,7.3c2.7,2.6,5.3,5.4,7.6,8.4c2.3,3.1,4.2,6.3,6.4,9.4
			c0.5,0.8,1.1,1.6,1.6,2.3c0.5,0.8,1.1,1.6,1.6,2.3l3.4,4.6c1.2,1.5,2.2,3.1,3.3,4.6c1.1,1.6,2,3.2,3,4.9c1,1.6,1.9,3.3,2.8,5
			c0.9,1.7,1.7,3.4,2.5,5.1c0.7,1.8,1.5,3.5,2.1,5.3s1.2,3.6,1.8,5.4c1,3.7,1.9,7.4,2.6,11.1c0,0.1,0,0.2-0.1,0.2s-0.1,0-0.2-0.1
			l0,0c-1.7-3.4-3.1-6.9-4.5-10.3c-0.8-1.7-1.6-3.4-2.3-5.1c-0.8-1.7-1.6-3.4-2.4-5.1l-2.4-5.1c-0.8-1.7-1.6-3.4-2.5-5
			c-1.7-3.3-3.4-6.7-5.2-10c-0.9-1.6-1.8-3.3-2.8-4.9c-0.5-0.8-1-1.6-1.6-2.4c-0.5-0.8-1.1-1.5-1.7-2.3c-2.3-3-5-5.6-7.5-8.4
			c-1.3-1.4-2.5-2.8-3.7-4.2l-3.7-4.2c-2.4-2.9-4.9-5.7-7.2-8.7c-0.1-0.1,0-0.2,0-0.2C795.8,314.4,795.8,314.4,795.9,314.4z"/>
	</g>
	<g class="st36">
		<path class="st33" d="M773.9,336.4c3.2,1.6,6.2,3.5,9.1,5.4c1.5,1,2.9,2,4.4,3s2.8,2.1,4.2,3.2c2.7,2.2,5.3,4.7,8.1,6.8
			c2.8,2.1,5.7,4.1,8.6,6c3,1.9,5.9,3.9,8.7,6s5.7,4.2,8.4,6.4c5.4,4.5,10.6,9.2,15.4,14.4c0.1,0.1,0.1,0.2,0,0.2s-0.1,0.1-0.2,0
			c-6-3.7-11.7-7.9-17.2-12.1c-2.8-2.2-5.5-4.4-8.1-6.6c-2.7-2.2-5.4-4.5-8-6.9s-5.3-4.6-8.2-6.6s-6-3.7-9-5.6c-1.5-1-2.9-2-4.3-3
			c-1.4-1.1-2.8-2.1-4.2-3.2c-2.7-2.2-5.4-4.5-7.9-7l0,0c-0.1-0.1-0.1-0.2,0-0.2C773.7,336.4,773.8,336.4,773.9,336.4z"/>
	</g>
	<g>
		<path class="st33" d="M754.5,362.8c3.7,1.9,7.3,3.9,10.9,6c3.6,2.1,7.1,4.3,10.5,6.6c3.4,2.4,6.7,4.9,10.2,7.1s7.2,4.2,10.9,6
			s7.5,3.6,11.1,5.5c3.7,1.9,7.4,3.7,11,5.7c7.3,3.9,14.5,7.9,21.6,12.3c0.1,0,0.1,0.1,0,0.2c0,0.1-0.1,0.1-0.2,0.1
			c-7.9-2.7-15.5-6-23-9.8c-3.7-1.9-7.3-3.9-10.9-6c-3.6-2.1-7.1-4.3-10.6-6.6c-3.5-2.3-7-4.5-10.6-6.6s-7.4-3.8-11-5.8
			c-3.6-2.1-7.1-4.4-10.4-6.8c-3.4-2.4-6.7-4.9-9.8-7.7c-0.1-0.1-0.1-0.2,0-0.2C754.4,362.8,754.4,362.8,754.5,362.8z"/>
	</g>
	<g>
		<path class="st33" d="M737.8,392.7c4.7,1.8,9.2,3.9,13.7,6c4.5,2.2,8.9,4.4,13.3,6.8c4.3,2.5,8.5,5.2,12.9,7.6s8.8,4.6,13.4,6.6
			c4.5,2.1,9,4.2,13.5,6.4c4.5,2.2,8.9,4.4,13.3,6.8c8.7,4.8,17.4,9.7,25.7,15.2c0.1,0,0.1,0.1,0,0.2c0,0.1-0.1,0.1-0.2,0.1
			c-9.2-3.8-18.2-8.1-27.1-12.6c-4.4-2.3-8.8-4.7-13.1-7.1c-4.4-2.4-8.7-4.9-12.9-7.5c-4.3-2.6-8.6-5-13-7.2s-9.1-4.1-13.6-6.2
			s-8.8-4.5-13.2-7c-4.3-2.5-8.6-5-12.7-7.8C737.7,393,737.7,392.9,737.8,392.7C737.6,392.7,737.7,392.7,737.8,392.7z"/>
	</g>
	<g class="st37">
		<path class="st33" d="M724.6,420.9c3.6,1.9,7.1,4,10.6,6.1s7,4.1,10.4,6.3c3.4,2.2,6.7,4.6,10.3,6.5c3.6,2,7.3,3.6,11.1,5.1
			l11.4,4.3c3.8,1.4,7.6,2.7,11.4,4.1c7.6,2.8,15.2,5.4,22.9,8.2c0.1,0,0.1,0.1,0.1,0.2s-0.1,0.1-0.2,0.1c-8.1-1-16.1-2.9-23.9-5.5
			c-3.9-1.3-7.7-2.8-11.4-4.5c-3.8-1.6-7.4-3.4-11-5.4s-7.2-3.9-10.8-5.7c-3.7-1.8-7.4-3.4-11.1-5.3c-3.6-1.9-7-4.1-10.4-6.5
			c-3.3-2.4-6.5-4.9-9.5-7.8c-0.1-0.1-0.1-0.2,0-0.2C724.4,420.9,724.5,420.9,724.6,420.9z"/>
	</g>
	<g class="st38">
		<path class="st33" d="M712.3,451.7c4.1,2.2,8.1,4.5,12.2,6.8c4,2.3,8.1,4.6,12,7l5.9,3.6c1,0.6,2,1.2,3,1.8c1,0.6,2,1.1,3.1,1.6
			c2.1,1.1,4.2,2,6.3,2.9s4.3,1.7,6.5,2.5s4.4,1.5,6.6,2.3l6.6,2.2c4.4,1.4,8.8,2.8,13.2,4.2c8.8,2.8,17.7,5.4,26.6,8.1
			c0.1,0,0.1,0.1,0.1,0.2s-0.1,0.1-0.2,0.1c-9.3-0.8-18.5-2.7-27.5-5.3c-4.5-1.3-8.9-2.9-13.3-4.6c-4.4-1.7-8.6-3.6-12.8-5.7
			s-8.4-4.1-12.6-6.1c-2.1-1-4.3-1.9-6.4-2.8c-2.1-0.9-4.3-1.9-6.4-2.9c-2.1-1.1-4.1-2.2-6.1-3.4c-2-1.2-4-2.5-5.9-3.8
			c-3.9-2.6-7.6-5.4-11.1-8.6c-0.1-0.1-0.1-0.2,0-0.2C712.1,451.7,712.2,451.7,712.3,451.7z"/>
	</g>
	<g class="st39">
		<path class="st33" d="M698.2,479c4.1,2.4,8.1,5,12.1,7.4l12.1,7.3c4,2.5,8,5,12.2,7.1s8.6,3.8,13.1,5.2c4.5,1.4,9,3,13.4,4.6
			s8.9,3.3,13.3,5c8.8,3.6,17.4,7.4,25.9,11.7c0.1,0,0.1,0.1,0.1,0.2c0,0.1-0.1,0.1-0.2,0.1c-9.2-2.6-18.1-5.7-26.9-9
			c-4.4-1.7-8.8-3.5-13.1-5.4c-4.4-1.8-8.7-3.7-13-5.7l-13-5.9c-4.3-1.9-8.8-3.7-13-5.8c-2.1-1.1-4.2-2.3-6.2-3.5
			c-2-1.3-4-2.6-5.9-4c-3.9-2.8-7.6-5.8-11-9.1c-0.1-0.1-0.1-0.2,0-0.2C698,479,698.1,479,698.2,479z"/>
	</g>
	<g class="st40">
		<path class="st33" d="M686.7,508c4.1,2.2,8,4.5,12,6.9c3.9,2.4,7.8,4.7,11.7,7.2c3.8,2.5,7.5,5.2,11.5,7.6c4,2.3,8.1,4.3,12.3,6.2
			l6.3,2.7l6.3,2.8l12.6,5.5c8.4,3.7,16.7,7.4,25.1,11.3c0.1,0,0.1,0.1,0.1,0.2c0,0.1-0.1,0.1-0.2,0.1c-9-2.1-17.7-5.1-26.3-8.6
			c-4.2-1.8-8.4-3.8-12.5-5.8s-8.2-4.3-12.1-6.6c-4-2.4-7.9-4.7-12-6.8c-4.1-2.2-8.3-4.1-12.3-6.3c-2-1.1-4-2.3-5.9-3.6
			c-1.9-1.2-3.9-2.5-5.7-3.9c-3.8-2.7-7.4-5.5-10.9-8.6c-0.1-0.1-0.1-0.2,0-0.2C686.6,508,686.7,508,686.7,508z"/>
	</g>
	<g>
		<path class="st33" d="M675.3,537.1c4.2,2,8.2,4.2,12.2,6.5s8,4.6,11.8,7.1c3.9,2.5,7.6,5.2,11.5,7.6c3.9,2.4,8,4.5,12.2,6.4
			l6.2,2.9l6.2,3c4.1,2,8.3,4,12.3,6.1c4.1,2.1,8.2,4.2,12.2,6.4c4.1,2.1,8.1,4.4,12.1,6.8c0.1,0,0.1,0.1,0.1,0.2
			c0,0.1-0.1,0.1-0.2,0.1c-8.7-3-17.3-6.6-25.6-10.6c-4.1-2-8.2-4.2-12.2-6.5c-4-2.2-8-4.6-11.9-7s-7.8-4.8-11.9-7
			c-4-2.2-8.3-4.1-12.3-6.3c-2-1.1-4-2.2-6-3.5l-2.9-1.8l-2.9-1.9c-3.8-2.6-7.6-5.3-11.1-8.2c-0.1-0.1-0.1-0.1,0-0.2
			C675.1,537.1,675.2,537.1,675.3,537.1z"/>
	</g>
	<g>
		<path class="st33" d="M660.3,558.2c3.9,2.4,7.7,4.9,11.5,7.4s7.5,5.1,11.2,7.8c3.6,2.7,7.2,5.6,11,8.1s7.8,4.7,11.8,6.7l6.1,3
			l6.1,3.1l12.2,6c8.1,4.1,16.2,8.1,24.3,12.4c0.1,0,0.1,0.1,0.1,0.2c0,0.1-0.1,0.1-0.2,0.1c-8.8-2.5-17.3-6-25.6-9.8
			c-4.1-2-8.1-4.1-12.1-6.4c-4-2.2-7.9-4.6-11.7-7.2c-3.8-2.5-7.6-5-11.5-7.3s-8-4.4-11.9-6.8c-1.9-1.2-3.8-2.5-5.7-3.8l-2.8-2
			l-2.7-2.1c-3.6-2.8-7.1-5.8-10.3-9.1c-0.1-0.1-0.1-0.2,0-0.2C660.2,558.2,660.3,558.2,660.3,558.2z"/>
	</g>
	<g>
		<path class="st33" d="M886.5,266.9c2.6,0.4,5.1,1.5,7.3,3.1s4.1,3.7,5.2,6.2c0.6,1.2,0.9,2.5,1.2,3.8c0.1,0.7,0.2,1.3,0.4,1.9
			s0.4,1.2,0.6,1.8c1,2.3,2.4,4.4,4.1,6.3c1.7,1.9,3.4,3.8,5,5.7c1.7,1.9,3.4,3.8,5,5.7c3.2,3.9,6.4,7.9,9.2,12.2c0,0.1,0,0.2,0,0.2
			c-0.1,0-0.1,0-0.2,0c-4.2-3-7.9-6.6-11.4-10.3c-1.7-1.9-3.3-4-4.8-6c-1.5-2.1-2.9-4.3-4.1-6.6c-1.2-2.3-2.4-4.5-3.6-6.8
			c-0.3-0.6-0.6-1.2-0.9-1.8l-0.8-1.8c-0.5-1.1-1.2-2.2-1.8-3.2c-1.3-2-2.7-3.9-4.5-5.6c-1.7-1.7-3.7-3.1-5.9-4.6
			C886.4,267.1,886.4,267,886.5,266.9C886.4,266.9,886.4,266.9,886.5,266.9z"/>
	</g>
	<g>
		<path class="st33" d="M939.2,319.1c-5.3-0.6-10.5-0.9-15.7-0.5c-2.6,0.2-5.2,0.5-7.7,0.9c-2.5,0.5-5.1,1.1-7.6,1.8
			c-4.9,1.4-9.7,3.7-14.1,6.7c-4.4,3-8.5,6.4-12.5,9.8L869.5,348c-4,3.5-7.8,7-11.3,10.9c-3.4,3.9-6.5,8.1-8.6,12.8
			c-2.2,4.7-3.7,9.8-4.4,15c0,0.1-0.1,0.1-0.2,0.1c-0.1,0-0.1-0.1-0.1-0.1c-0.1-2.7,0.1-5.4,0.5-8c0.2-1.3,0.5-2.7,0.8-4
			c0.2-0.7,0.3-1.3,0.5-2l0.7-1.9c1.8-5.2,4.9-9.8,8.4-14c3.6-4.1,7.7-7.6,11.8-11c4.2-3.4,8.5-6.4,12.9-9.4s8.7-6.2,12.9-9.3
			c4.3-3.1,8.7-6.4,13.9-8.3c5.1-1.8,10.6-2.6,16-2.6s10.8,0.8,15.9,2.6c0.1,0,0.1,0.1,0.1,0.2C939.4,319,939.3,319.1,939.2,319.1z"
			/>
	</g>
	<g>
		<path class="st33" d="M960.3,356.9c-3.1-0.9-6.1-1.9-9.2-2.9l-4.5-1.5c-1.5-0.5-3-1-4.5-1.6c-3-1.1-5.9-2.5-9-3.3
			c-3.1-0.9-6.2-1.4-9.4-1.6l-9.5-0.7c-3.2-0.2-6.3-0.4-9.5-0.5c-6.3-0.4-12.7-0.6-19.1-0.9c-0.1,0-0.1-0.1-0.1-0.2s0.1-0.1,0.1-0.1
			c6.3-1.6,12.8-2.1,19.3-2c3.2,0.1,6.5,0.4,9.7,0.9c3.2,0.4,6.4,1.1,9.5,1.9s6.2,1.7,9.4,2.3c3.1,0.7,6.4,1.1,9.5,1.9
			c1.6,0.4,3.1,0.9,4.6,1.5s3,1.2,4.5,1.9c2.9,1.4,5.8,2.9,8.4,4.8c0.1,0,0.1,0.1,0,0.2C960.4,356.9,960.4,356.9,960.3,356.9z"/>
	</g>
	<g>
		<path class="st33" d="M952.4,415c-2.8,0.1-5.5-0.1-8.2-0.3c-1.4-0.1-2.7-0.2-4.1-0.4c-1.4-0.1-2.7-0.3-4-0.6
			c-2.7-0.5-5.3-1.2-8-1.6c-2.7-0.3-5.4-0.4-8.2-0.2c-2.7,0.1-5.4,0.3-8.2,0.3c-2.7,0-5.4,0.1-8.1,0.1c-5.4-0.1-10.8-0.3-16.3-0.9
			c-0.1,0-0.1-0.1-0.1-0.2s0.1-0.1,0.1-0.1c5.4-1.3,10.9-1.8,16.3-2c2.7-0.1,5.5,0.1,8.2,0.3c2.7,0.1,5.5,0.5,8.2,0.9
			s5.4,0.8,8.1,0.9c2.7,0.1,5.5-0.1,8.2,0c1.4,0.1,2.7,0.2,4.1,0.4c1.4,0.2,2.7,0.4,4,0.7c2.7,0.6,5.3,1.2,7.9,2.3
			c0.1,0,0.1,0.1,0.1,0.2C952.5,415,952.5,415,952.4,415z"/>
	</g>
	<g>
		<path class="st33" d="M962.2,433.5c-2.3,1.6-4.9,2.7-7.5,3.7c-0.7,0.2-1.3,0.5-2,0.7s-1.3,0.4-2,0.6c-1.3,0.4-2.7,0.7-4.1,0.8
			c-2.8,0.3-5.6,0.3-8.4,0.4c-2.8,0.2-5.5,0.4-8.3,0.6c-2.8,0.3-5.5,0.5-8.2,0.7l-8.1,0.8c-5.4,0.4-10.9,1-16.5,1.3
			c-0.1,0-0.2-0.1-0.2-0.1c0-0.1,0-0.1,0.1-0.1c5.2-2.2,10.6-3.4,16.2-4.2c2.8-0.3,5.6-0.4,8.4-0.5c1.4,0,2.8,0,4.2,0.1
			s2.8,0.2,4.1,0.4c2.8,0.3,5.5,0.4,8.2,0.1s5.4-1.2,8-1.9c1.3-0.3,2.6-0.7,4-1l4-0.9c2.7-0.6,5.3-1.3,8.1-1.8c0.1,0,0.2,0,0.2,0.1
			C962.3,433.4,962.2,433.5,962.2,433.5z"/>
	</g>
	<g>
		<path class="st33" d="M966.6,463.4c-2,1.9-4.3,3.4-6.7,4.6c-2.5,1.2-5.1,2.2-7.8,2.6s-5.5,0.3-8.2,0.4s-5.4,0-8.1,0.1
			c-1.3,0.1-2.6,0.2-3.9,0.4c-1.3,0.2-2.6,0.3-3.9,0.5c-2.6,0.4-5.1,1-7.7,1.6c-2.5,0.6-5.1,1.2-7.6,1.9c-2.6,0.7-5.1,1.4-7.8,2
			c-0.1,0-0.2,0-0.2-0.1s0-0.1,0.1-0.2c4.5-3.1,9.5-5.3,14.8-6.7c2.6-0.7,5.4-1.1,8.1-1.3c2.7-0.2,5.5-0.1,8.2,0.3
			c1.4,0.2,2.7,0.4,4,0.5s2.6,0.1,4,0c2.6-0.2,5.2-1.1,7.7-1.8c2.5-0.8,5-1.5,7.4-2.3c2.5-0.8,4.9-1.8,7.5-2.7c0.1,0,0.2,0,0.2,0.1
			C966.7,463.3,966.7,463.4,966.6,463.4z"/>
	</g>
	<g>
		<path class="st33" d="M974.6,487.1c-1.6,2.4-3.6,4.5-5.8,6.4c-1.1,1-2.3,1.8-3.5,2.6c-1.2,0.8-2.5,1.5-3.8,2.1
			c-2.7,1.2-5.5,1.8-8.3,2.6c-2.8,0.8-5.6,1.4-8.3,2.1c-2.8,0.7-5.5,1.4-8.3,1.9s-5.6,1.1-8.4,1.5c-5.6,0.7-11.3,1.2-17,1.2
			c-0.1,0-0.2-0.1-0.1-0.2c0-0.1,0-0.1,0.1-0.1c5.5-1.8,11-3,16.6-4c2.8-0.5,5.6-0.8,8.4-1.1c2.8-0.4,5.6-0.6,8.5-0.7
			c2.8-0.1,5.6-0.5,8.3-1.4s5.1-2.4,7.4-3.9c1.2-0.7,2.4-1.4,3.6-2.1c1.2-0.7,2.4-1.4,3.5-2.2c2.3-1.5,4.6-3.2,7-4.8
			c0.1,0,0.2,0,0.2,0C974.6,487,974.6,487.1,974.6,487.1z"/>
	</g>
	<g>
		<path class="st33" d="M979,498.5c0,2.9-0.6,5.8-1.5,8.6c-0.5,1.4-1,2.8-1.6,4.1c-0.6,1.3-1.3,2.6-2.2,3.8
			c-1.7,2.4-3.8,4.5-5.8,6.5c-1,1-1.9,2.1-3,3.1c-0.5,0.5-1,1-1.5,1.6c-0.5,0.5-1.1,1-1.6,1.5l-1.6,1.5c-0.6,0.5-1.1,0.9-1.7,1.4
			c-1.1,0.9-2.4,1.6-3.7,2.4c-2.5,1.4-5.2,2.8-8,3.6c-2.8,0.9-5.7,1.5-8.6,1.8c-2.9,0.3-5.8,0.3-8.7-0.1c-0.1,0-0.1-0.1-0.1-0.2
			c0-0.1,0.1-0.1,0.1-0.1c5.6-1.1,11.1-2.5,16.3-4.4c1.3-0.4,2.6-1,3.9-1.4c0.7-0.2,1.3-0.5,1.9-0.8c0.6-0.3,1.3-0.5,1.9-0.8
			c1.2-0.6,2.5-1.2,3.7-1.9c0.6-0.3,1.2-0.7,1.8-1l1.8-1.1c1.2-0.7,2.3-1.6,3.4-2.5c1.1-0.9,2-2,3-3c1.8-2.1,3.1-4.7,4.4-7.2
			l1.9-3.7c0.6-1.2,1.2-2.5,1.8-3.8c1.2-2.5,2.2-5.1,3.3-7.8c0-0.1,0.1-0.1,0.2-0.1C979,498.4,979,498.5,979,498.5z"/>
	</g>
	<g>
		<path class="st33" d="M988.7,509.9c0.7,1.9,1,3.8,1.1,5.8s0,3.9-0.6,5.8c-0.5,1.9-1.5,3.7-2.1,5.5c-0.7,1.8-1.2,3.6-1.8,5.5
			c-0.3,0.9-0.6,1.9-1,2.8c-0.4,0.9-0.8,1.8-1.3,2.6c-1,1.7-2,3.4-3.3,4.9c-2.6,2.9-5.8,5.4-9.5,6.9c-0.1,0-0.2,0-0.2-0.1
			s0-0.1,0-0.2c2.5-3,4.9-5.8,7.2-8.7c1.1-1.4,2.3-2.8,3.4-4.3c1.1-1.5,2.1-3,3.2-4.6c1.1-1.6,1.9-3.3,2.4-5.1s0.5-3.8,0.6-5.6
			c0.1-1.9,0.5-3.7,0.7-5.5c0.3-1.8,0.5-3.7,0.9-5.6C988.4,509.9,988.5,509.9,988.7,509.9C988.6,509.8,988.7,509.9,988.7,509.9z"/>
	</g>
	<g>
		<path class="st33" d="M1005.4,515.1c1.3,1.6,2.2,3.6,2.8,5.6s0.9,4.1,0.6,6.3c-0.3,2.1-1.1,4.1-1.8,6s-1.4,3.8-2.2,5.8
			c-0.4,0.9-0.9,1.9-1.4,2.8c-0.5,0.9-1.1,1.7-1.7,2.6c-1.2,1.6-2.4,3.2-3.8,4.7c-2.9,2.9-6.3,5.4-10.1,7c-0.1,0-0.2,0-0.2-0.1
			s0-0.1,0-0.2c2.7-3.1,5.4-5.9,7.9-8.9c1.3-1.5,2.7-2.9,4-4.4s2.7-2.9,3.9-4.4s2.2-3.3,2.7-5.2s0.3-3.9,0.2-5.8
			c-0.1-1.9-0.2-3.8-0.4-5.7s-0.5-3.8-0.8-5.9c0-0.1,0.1-0.2,0.1-0.2C1005.3,515.1,1005.4,515.1,1005.4,515.1z"/>
	</g>
	<g>
		<path class="st33" d="M1017.7,522.1c1.5,0.9,2.7,2.3,3.7,3.7c1,1.5,1.8,3.1,2.1,4.8c0.3,1.8,0.2,3.6,0.2,5.3c0,0.9,0,1.7,0.1,2.6
			c0,0.9,0.1,1.7,0.1,2.6c0.1,1.8-0.2,3.6-0.8,5.3c-0.5,1.7-1.3,3.4-2.3,4.8c-1,1.5-2.3,2.8-3.7,3.8c-1.4,1.1-3,1.9-4.7,2.4
			c-0.1,0-0.2,0-0.2-0.1s0-0.1,0-0.1c2.3-2.6,4.3-5.1,5.9-7.8c0.8-1.3,1.7-2.7,2.4-4.1c0.3-0.7,0.7-1.4,0.9-2.2l0.5-1.1l0.4-1.2
			c0.1-0.4,0.3-0.8,0.3-1.2c0.1-0.4,0.2-0.8,0.2-1.2c0.1-0.8,0.1-1.7,0-2.5c-0.2-1.7-1-3.2-1.7-4.6c-1.2-3-2.3-5.9-3.7-9.1
			c0-0.1,0-0.2,0.1-0.2C1017.6,522.1,1017.7,522.1,1017.7,522.1z"/>
	</g>
	<g>
		<path class="st33" d="M1035.3,526.6c1.4,0.9,2.5,2.1,3.4,3.4c0.9,1.3,1.6,2.8,2,4.4c0.3,1.6,0.2,3.3,0.3,4.8
			c0.1,0.8,0.1,1.6,0.2,2.4c0,0.8,0.2,1.6,0.2,2.4c0.2,1.6,0.1,3.3-0.2,4.9c-0.3,1.6-0.8,3.2-1.6,4.6c-1.6,2.9-3.9,5.3-6.9,6.7
			c-0.1,0-0.2,0-0.2-0.1V560c1.6-2.8,3.1-5.3,4.2-7.9c0.6-1.3,1.3-2.6,1.7-4c0.2-0.7,0.5-1.4,0.7-2.1c0.1-0.4,0.2-0.7,0.4-1.1
			l0.3-1.1c0.2-0.7,0.3-1.5,0.4-2.2c0-0.8,0-1.5-0.1-2.3c-0.2-1.5-1.1-2.9-1.7-4.2s-1.1-2.7-1.6-4.1c-0.5-1.4-1.1-2.8-1.6-4.3
			C1035.2,526.6,1035.2,526.5,1035.3,526.6C1035.2,526.5,1035.3,526.5,1035.3,526.6z"/>
	</g>
	<g>
		<path class="st33" d="M1052,534.5c1.1,0.8,1.9,1.8,2.6,2.9c0.6,1.1,1.2,2.2,1.4,3.5c0.2,1.3,0.1,2.6,0.2,3.8
			c0.1,0.6,0.2,1.2,0.4,1.8c0.2,0.6,0.3,1.2,0.5,1.8c0.4,1.2,0.7,2.5,0.7,3.8c0.1,1.3,0,2.6-0.3,3.9c-0.6,2.5-1.8,5-3.8,6.7
			c-0.1,0.1-0.2,0.1-0.2,0v-0.1c0.1-1.3,0.3-2.5,0.5-3.7l0.5-3.5c0.2-1.1,0.4-2.3,0.6-3.4c0.1-0.6,0.2-1.2,0.2-1.7
			c0.1-0.6,0.2-1.2,0.3-1.8c0.2-1.2,0.2-2.4-0.2-3.6c-0.3-1.2-1.1-2.2-1.7-3.3c-0.3-0.5-0.5-1.1-0.7-1.6c-0.2-0.6-0.4-1.1-0.5-1.7
			c-0.3-1.2-0.6-2.4-0.7-3.7C1051.8,534.5,1051.9,534.4,1052,534.5C1052,534.5,1052,534.5,1052,534.5z"/>
	</g>
	<g>
		<path class="st33" d="M868.3,577.3c-1.5-1.6-2.8-3.2-4.2-4.8c-1.3-1.7-2.6-3.4-3.8-5.1c-1.2-1.7-2.5-3.4-3.5-5.3
			c-1.1-1.8-2.1-3.7-3.1-5.6l0.3,0.3c-3.8-2.4-7.8-4.4-11.9-6.2c-2.1-0.9-4.1-1.7-6.2-2.6c-2-0.9-4-1.9-6.1-2.9c-4-1.9-8-4-11.8-6.3
			c-3.9-2.3-7.7-4.6-11.3-7.3c-0.1,0-0.1-0.1,0-0.2c0-0.1,0.1-0.1,0.2-0.1c4.3,1.5,8.4,3.2,12.5,5.1c4.1,1.8,8.1,3.8,11.9,6.1
			c1.9,1.1,3.9,2.2,5.8,3.3c1.9,1.1,3.8,2.3,5.7,3.5c3.8,2.4,7.7,4.5,11.9,6.2c0.1,0,0.1,0.1,0.2,0.1l0.1,0.1c1.3,1.6,2.7,3.3,4,5
			s2.4,3.5,3.5,5.3s2.2,3.6,3.2,5.5s2,3.7,2.9,5.7c0,0.1,0,0.2-0.1,0.2C868.4,577.4,868.3,577.4,868.3,577.3z"/>
	</g>
	<g>
		<path class="st33" d="M750.3,625.6c4.8-7.8,9.4-15.7,13.9-23.6c2.2-4,4.5-8,6.6-12s4.2-8.1,6.3-12.1c2.1-4.1,4.1-8.1,6.2-12.2
			c2.1-4.1,4.1-8.2,6-12.3c3.9-8.3,7.3-16.8,11.4-25c3.9-8.3,8.2-16.4,12-24.6c1.9-4.1,3.7-8.3,5.3-12.5s3-8.5,4.1-12.9
			c1.2-4.4,2.4-9,4.5-13.2c1-2.1,2.3-4.2,3.7-6.1c1.5-1.9,3.1-3.6,4.9-5.1c3.6-3.1,7.9-5.2,12.3-6.6c4.4-1.4,9.1-2,13.7-2.1
			c0.1,0,0.2,0.1,0.2,0.1c0,0.1-0.1,0.1-0.1,0.2c-2.3,0.3-4.5,0.7-6.7,1.2s-4.4,1.2-6.5,2c-4.2,1.6-8.1,4-11.3,7s-5.8,6.7-7.6,10.7
			s-2.9,8.4-4,12.8c-1.2,4.5-2.6,8.9-4.3,13.2c-1.7,4.3-3.7,8.5-5.7,12.6c-4.1,8.3-8.7,16.2-13.1,24.2c-2.2,4-4.4,8-6.3,12.2
			c-1.9,4.1-3.8,8.3-5.7,12.5c-1.8,4.2-3.6,8.4-5.4,12.6c-1.8,4.2-3.6,8.4-5.4,12.6c-3.8,8.4-8.3,16.4-13.1,24.2s-10,15.4-15.7,22.6
			c-0.1,0.1-0.1,0.1-0.2,0C750.3,625.7,750.3,625.6,750.3,625.6z"/>
	</g>
	<g>
		<path class="st33" d="M852,599.8c-2.8-1.5-5.4-3.2-8-4.9c-1.3-0.8-2.6-1.7-3.9-2.6c-1.3-0.9-2.5-1.8-3.8-2.7
			c-2.5-1.9-4.8-4-7.4-5.8c-2.6-1.7-5.3-3.3-8.1-4.6s-5.6-2.7-8.4-4.1c-2.8-1.4-5.6-2.7-8.3-4.1c-5.5-2.9-11-5.8-16.3-9.1
			c-0.1,0-0.1-0.1-0.1-0.2c0-0.1,0.1-0.1,0.2-0.1c6.1,1.5,12,3.8,17.7,6.5c2.8,1.4,5.6,2.9,8.3,4.5s5.3,3.3,7.9,5.1
			c2.6,1.8,5.1,3.6,7.8,5.2c2.7,1.6,5.6,2.9,8.2,4.5c1.3,0.8,2.7,1.7,3.9,2.6c1.3,0.9,2.5,1.9,3.7,2.9c2.4,2,4.7,4.1,6.8,6.5
			c0.1,0.1,0,0.2,0,0.2C852.1,599.8,852.1,599.8,852,599.8z"/>
	</g>
	<g>
		<path class="st33" d="M845.9,629.7c-3.1-1.5-6-3.2-9-4.9l-2.2-1.3l-2.2-1.3c-1.5-0.9-2.9-1.8-4.3-2.8c-2.8-1.9-5.5-4.1-8.4-5.8
			c-2.9-1.8-6-3.3-9.1-4.6s-6.3-2.6-9.4-4l-9.3-4.1c-6.1-2.9-12.3-5.7-18.4-8.9c-0.1,0-0.1-0.1-0.1-0.2c0-0.1,0.1-0.1,0.2-0.1
			c6.7,1.4,13.2,3.6,19.6,6.3c3.1,1.4,6.2,2.9,9.2,4.5s6,3.3,8.9,5.1s5.8,3.6,8.8,5.2c3,1.6,6.2,2.9,9.2,4.6c1.5,0.8,3,1.7,4.4,2.7
			c1.4,0.9,2.8,1.9,4.2,2.9C840.7,625,843.4,627.2,845.9,629.7c0.1,0,0.1,0.1,0,0.1C846,629.8,845.9,629.8,845.9,629.7z"/>
	</g>
	<g>
		<path class="st33" d="M830.9,648.2c-3.2-0.8-6.2-1.9-9.2-3.1c-1.5-0.6-3-1.2-4.5-1.9c-1.5-0.6-3-1.3-4.4-2.1
			c-2.9-1.5-5.6-3.3-8.5-4.7s-5.9-2.6-9-3.7c-3.1-1.1-6.1-2.2-9.1-3.5c-3-1.2-5.9-2.6-8.9-4c-5.8-2.9-11.5-6.1-16.9-9.7
			c-0.1,0-0.1-0.1,0-0.2c0-0.1,0.1-0.1,0.2-0.1c6.3,1.9,12.2,4.4,18.1,7.1c2.9,1.4,5.8,2.9,8.7,4.3c2.9,1.4,5.8,2.9,8.6,4.5
			s5.7,3.1,8.7,4.3c3,1.3,6.1,2.1,9.1,3.3c1.5,0.6,3,1.2,4.4,1.9c1.5,0.7,2.9,1.4,4.3,2.2c2.9,1.5,5.7,3.1,8.4,4.9
			c0.1,0,0.1,0.1,0,0.2C831.1,648.2,831,648.3,830.9,648.2z"/>
	</g>
	<g>
		<path class="st33" d="M883.7,540c-2.6-1.7-5-3.5-7.5-5.4c-1.2-0.9-2.4-1.9-3.6-2.8c-1.2-0.9-2.4-1.9-3.5-2.9c-2.3-2-4.4-4.2-6.9-6
			c-2.4-1.8-5.1-3.4-7.8-4.8l-16.2-8.2c-5.4-2.8-10.7-5.6-16.1-8.6c-0.1,0-0.1-0.1-0.1-0.2s0.1-0.1,0.2-0.1
			c6.1,1.3,11.9,3.4,17.4,6.1c2.8,1.3,5.4,2.9,8.1,4.5c2.6,1.6,5.2,3.3,7.6,5.2c2.4,1.9,4.9,3.7,7.5,5.4s5.3,3.1,7.9,4.8
			c1.3,0.9,2.5,1.8,3.7,2.8s2.3,2,3.4,3.1c2.2,2.1,4.3,4.4,6.1,6.9c0,0.1,0,0.2,0,0.2C883.8,540,883.7,540,883.7,540z"/>
	</g>
	<g>
		<path class="st33" d="M889,512.7c-2.3-1.8-4.3-3.7-6.4-5.7c-1-1-2.1-1.9-3.1-2.9s-2-2-3-3c-1.9-2.1-3.7-4.3-5.8-6.3
			c-2.1-1.9-4.4-3.6-6.8-5.1c-2.4-1.5-4.8-3-7.2-4.5l-7.2-4.5c-4.7-3.1-9.5-6.1-14.2-9.4c-0.1,0-0.1-0.1,0-0.2
			c0-0.1,0.1-0.1,0.2-0.1c5.6,1.6,10.8,4,15.8,6.9c2.5,1.5,4.8,3.1,7.1,4.9c1.2,0.9,2.3,1.7,3.4,2.7c1.1,0.9,2.1,1.9,3.2,2.9
			c2.1,2,4.2,3.9,6.4,5.7c2.2,1.8,4.7,3.3,6.9,5.2c1.1,0.9,2.2,1.9,3.1,3c1,1,2,2.1,2.9,3.2c1.8,2.2,3.6,4.5,5,7.1
			c0,0.1,0,0.2-0.1,0.2C889.1,512.7,889,512.7,889,512.7z"/>
	</g>
	<path class="st33" d="M897,496.7c0.4-10.6-6.4-14.9-14.1-30.8c-6.2-12.9-3-13-8.8-23.8c-7.8-14.4-12.7-12.6-18.5-24.6
		c-7.1-14.7-4.9-28.4-9.7-29c-2.1-0.3-4.1,2.2-4.4,2.6c-4.2,5.5-0.5,15,7,31.7c6.6,14.6,8.2,17.3,13.2,28.2
		c4.6,10,16.4,36.5,22,44.9c2,3,3.5,4.2,6.2,8.8c1.3,2.3,4,9.2,4.8,9.2c1.3,0,1.8-1.8,4.4-2.6C901.6,510.5,896.9,500.8,897,496.7z"
		/>
</g>
<g id="Krae">
	<path class="st41" d="M964.8,421c2.4-0.7,5.4-3.3,9.7-29c2.1-13,3.2-19.7,2.6-27.3c-0.7-10.1-1.2-16.2-5.3-22
		c-1.4-1.9-3.3-4.1-4.4-7.9c-1.4-4.9-0.4-9,0-11.4c1-5.7-0.5-12-3.5-24.6c-1.8-7.7-4.1-13.6-8.8-25.5c-6.8-17.5-9-19.6-11.4-21.1
		c-5.2-3.1-12.8-4.1-19.4-0.9c-4.1,2-8.5,5.5-7.9,7c0.4,0.9,0.2,0.8,2.2,1.3c0.9,0.2,2.8,1.2,3.5,1.8c4.5,3.5,7.8,11.8,9.2,19.8
		c3.4,18.9,1.2,20.2,3.5,28.2c4.3,15,12.9,13.3,21.1,29c11.2,21.4,6.6,46.4,6.2,48.4c-1.6,8.2-4.5,15.1-6.1,20.5
		c-1.3,4.7,2.5,8.5,3,11.6C959.5,421.6,962.1,421.8,964.8,421z"/>
</g>
<g id="Nahk">
	<path class="st26" d="M966.7,328.1c0,0.1-0.1,0.4,0,0.5c1.9,0.8,7.2-0.8,13.9-4.4c3.7-1.9,5.5-2.9,7-4.4c3.2-3.1,3-5.2,5.3-6.2
		s4.1,0.4,9.7,2.6c7.8,3.1,11.8,4.7,15.8,3.5c3.2-0.9,5.2-3.1,7.9-6.2c2.1-2.3,2.8-3.8,6.2-9.7c9.5-16.9,9.9-16.6,10.6-19.4
		c0.4-1.8,0.8-4.1,2.6-6.2c2.2-2.5,4.3-2.2,5.3-4.4c0.8-1.8-0.4-2.5-0.9-7c-0.3-2.6-0.5-5.4,0.9-7.9c0.9-1.6,1.7-1.7,3.5-3.5
		c1-0.9,4.9-4.7,6.2-9.7c0.8-3.1-0.4-3.3,0-9.7c0.1-0.9,0.1-2,0.9-7c1.4-9.9,1.7-9.8,1.8-11.4c0.1-5.9-3.8-10.4-7-14.1
		c-14-15.9-36.1-22-36.1-22c-12.2-3.4-41.8-11.5-65.1,6.2c-3.2,2.4-20.1,15.3-21.1,37c-0.1,2.6-0.5,15.4,7,26.4
		c3.2,4.7,6.3,6.7,10.6,14.1c2.7,4.7,4,8.3,6.2,14.1c1.6,4.5,5,13.6,7,25.5c1.8,10.4,2.7,15.6,2.6,17.6
		C967.3,325.3,966.5,327,966.7,328.1z"/>
	<path class="st18" d="M1022,288.1c-4.3-2.5-6.5-5.7-7-5.3c-0.6,0.5,1.6,4.5,4.4,7.9c1.1,1.3,9.3,11.2,15,8.8c2.1-0.9,3.1-4,4-5.7
		c0.1-0.2-0.6-0.8-0.9-0.9C1034.7,292.1,1029.9,292.7,1022,288.1z"/>
</g>
<g id="Nahk-Detail">
	<g class="st35">
		<path class="st42" d="M1035.7,237.7c-1.6,0.6-3.4,0.8-5.1,0.7c-1.7-0.2-3.4-0.7-5-1.4c-1.6-0.8-3-1.8-4.2-3.1s-2.1-2.8-2.6-4.5
			l4.1,2.6c1.3,0.8,2.6,1.6,4,2.2c1.3,0.7,2.7,1.3,4.2,1.8C1032.6,236.7,1034.1,237.1,1035.7,237.7z"/>
	</g>
	<g class="st40">
		<path class="st43" d="M1044.9,234.4c-1.7-2.6-3.5-4.9-5.5-6.7c-1-0.9-2.1-1.7-3.2-2.5c-0.6-0.3-1.2-0.7-1.8-0.9l-0.9-0.4l-0.9-0.3
			c-1.2-0.5-2.5-0.8-3.9-1.1c-1.3-0.2-2.7-0.3-4.1-0.4c-2.8,0-5.7,0.3-8.7,0.9c2.3-2.1,5.3-3.4,8.4-4c1.6-0.3,3.2-0.4,4.8-0.3
			c0.8,0.1,1.6,0.2,2.4,0.4s1.6,0.4,2.4,0.7l1.2,0.5l1.1,0.6c0.7,0.4,1.4,0.8,2.1,1.3c1.3,1,2.5,2.2,3.4,3.5
			C1043.6,228.2,1044.8,231.3,1044.9,234.4z"/>
	</g>
	<g class="st35">
		<path class="st43" d="M1049.2,240.8c0.1-0.8,0.8-1.4,1.6-1.7c0.7-0.4,1.5-0.5,2.3-0.5c1.6-0.1,3,0.2,4.5,0.8
			c1.7,0.7,2.9,2.4,3.1,4.2c0.2,1.7-0.5,3.5-1.8,4.3c0.1-1.5-0.1-2.7-0.6-3.7s-1.1-1.7-2-2.1c-1-0.5-2.3-1-3.4-1.3
			c-0.6-0.2-1.2-0.3-1.8-0.3C1050.5,240.4,1049.9,240.4,1049.2,240.8z"/>
	</g>
	<g class="st44">
		<path class="st42" d="M1056.7,249.8c-0.7,0.7-1.7,1-2.7,1s-2-0.2-2.9-0.8c-0.4-0.3-0.9-0.6-1.2-1.1c-0.3-0.4-0.6-1-0.7-1.5
			s-0.1-1,0-1.5s0.2-1,0.5-1.4c0.1,0.5,0.3,0.9,0.4,1.3c0.2,0.4,0.4,0.8,0.6,1.1c0.2,0.4,0.4,0.6,0.6,0.8s0.5,0.4,0.8,0.6
			c0.6,0.4,1.3,0.7,2.1,0.9C1055,249.5,1055.8,249.7,1056.7,249.8z"/>
	</g>
	<g class="st45">
		<path class="st46" d="M1018.5,279.3c-2.1-1.1-4.2-1-5.7,0c-0.7,0.5-1.4,1.2-1.8,2.1c-0.4,0.9-0.6,1.9-0.5,3.1
			c-0.9-0.9-1.3-2.2-1.1-3.6c0.2-1.3,1-2.6,2.2-3.4s2.6-1,3.9-0.7C1016.9,277.3,1018,278.2,1018.5,279.3z"/>
	</g>
	<g class="st47">
		<path class="st46" d="M1035.6,262.2c-2.6,0.4-4.8,2.1-5.6,4.4c-0.9,2.3-0.4,5,1.2,7c-1.1-0.7-1.9-1.9-2.3-3.3
			c-0.4-1.3-0.3-2.8,0.2-4.1c0.5-1.3,1.5-2.5,2.6-3.2C1032.9,262.3,1034.3,262,1035.6,262.2z"/>
	</g>
	<g>
		<path class="st46" d="M1044.9,278.4c-1.3,0.5-2.4,1.1-3.2,2c-0.9,0.9-1.5,2-2,3.3c-0.1-0.7,0-1.4,0.2-2.1s0.6-1.3,1.1-1.9
			C1041.9,278.7,1043.5,278.1,1044.9,278.4z"/>
	</g>
	<path class="st48" d="M1041.7,275.6c-0.6,1.1-2.6,1-4.5-0.1s-2.9-2.8-2.3-3.9c0.5-0.9,1.9-0.3,3.4,0.2c0.4,0.1,0.5,0.7,0.9,0.9
		C1041,273.8,1042.3,274.5,1041.7,275.6z"/>
	<g>
		<path class="st49" d="M964,254.8c0,5.9,0.6,11.7,1.9,17.3c1.3,5.6,3.4,11.1,6.2,16.1c2.8,5.1,6.2,9.7,10.2,14
			c4,4.2,8.4,8,13.3,11.3c-2.6-1.3-5.2-2.9-7.6-4.5c-2.4-1.7-4.7-3.6-6.8-5.7c-2.2-2-4.1-4.3-6-6.6c-0.9-1.2-1.8-2.4-2.6-3.7
			l-1.2-1.9l-1.1-1.9c-2.9-5.2-4.9-10.9-6-16.7C963.3,266.6,963.2,260.6,964,254.8z"/>
	</g>
	<g class="st47">
		<path class="st46" d="M1048.9,252.9c0.2,0.7,0.5,1.3,0.8,1.9c0.3,0.6,0.5,1.3,0.7,2c0.1,0.4,0.1,0.7,0.2,1.1c0,0.4,0,0.7,0,1.1
			c0,0.7-0.1,1.4-0.3,2.1c-0.2-0.7-0.4-1.4-0.5-2.1s-0.2-1.3-0.3-2c-0.1-0.6-0.4-1.3-0.5-2C1048.8,254.4,1048.7,253.6,1048.9,252.9z
			"/>
	</g>
</g>
<g id="Juuksed">
	<path class="st50" d="M1063.3,216c1.4,0.2,2.1-4.2,5.3-7.9c4.6-5.4,9.1-3.7,11.4-7c4.7-6.7-8.9-22.4-12.3-26.4
		c-4.9-5.8-10.3-12.1-19.4-15c-4.4-1.4-5.1-0.5-12.3-2.6c-9-2.6-9.8-4.5-15.8-5.3c-1.7-0.2-1.2,0-14.1,0.9
		c-10.2,0.7-13.8,0.8-15.8,0.9c-8.2,0.2-7.5-0.3-10.6,0c-11.2,1.1-19.3,7.5-22,9.7c-5.4,4.4-4.2,5.4-12.3,15
		c-11.9,13.9-15.9,13.4-19.4,22c-1.4,3.5-3.8,9.4-3.5,16.7c0.1,2.6,0.5,4.1,0,7c-0.8,5.1-2.9,6.5-2.6,10.6c0.2,2.6,1,2.4,1.8,6.2
		c1.2,6.1-0.7,8.3,0.9,9.7c2.1,1.9,5.6-1.8,12.3-0.9c1.4,0.2,4.3,0.6,7,2.6c4.3,3.3,4.6,8.1,6.2,7.9c1.4-0.1,1.4-3.9,4.4-8.8
		c1.7-2.8,2.4-2.5,3.5-4.4c3-5.1-0.4-8.9,0.9-15c1.4-6.7,7.9-13,13.2-12.3c2.6,0.4,4.9,2.4,6.2,4.4c2,3.3,0.5,5.6,2.6,7.9
		c1.7,1.8,4.7,2.5,7,1.8c2.4-0.7,3.7-2.7,5.3-5.3c2.3-3.6,1.8-5,3.5-6.2c2.5-1.7,4.3,0.4,7-0.9c3.7-1.7,2.1-6.2,6.2-9.7
		c1.5-1.2,1.5-0.5,8.8-3.5c5.5-2.3,6.5-3.2,7-4.4c1-2.5-1.1-4.1,0-6.2c1.1-2.1,4.3-2.4,7-2.6c2.4-0.2,5.3-0.2,9.7,0.9
		c4.3,1,7.7,1.9,11.4,4.4c2.2,1.5,7.6,5.1,9.7,11.4C1062.4,213.9,1062.5,215.8,1063.3,216z"/>
</g>
<g id="Juuksed-Detail">
	<g class="st51">
		<path class="st18" d="M1070.8,187.9c-2.6-5.2-5.9-10.1-10.1-13.8c-2.1-1.9-4.4-3.5-6.8-4.8s-5-2.2-7.6-2.7
			c-2.7-0.5-5.5-0.8-8.4-1.1l-4.3-0.4c-1.4-0.1-2.9-0.2-4.3-0.3c-5.7-0.4-11.2,0-17.1,0.5c-5.9,0.4-11.9,0.4-17.8,0.1
			c-3-0.2-5.9-0.4-8.9-0.7c-2.9-0.3-5.9-0.7-8.6-0.9c-1.4-0.1-2.6-0.1-3.9,0.1c-1.2,0.2-2.5,0.6-3.8,1.1c-2.5,1-4.9,2.4-7.1,4.2
			c-4.4,3.5-7.8,8.3-10.8,13.3c1.8-5.6,4.6-11,8.8-15.5c2.1-2.2,4.6-4.1,7.4-5.6c1.4-0.7,2.9-1.4,4.5-1.8c1.6-0.4,3.3-0.6,4.8-0.6
			c3.1,0,6,0.2,8.9,0.3s5.8,0.2,8.6,0.3c2.9,0,5.8,0.1,8.6,0c2.9-0.1,5.7-0.2,8.6-0.4c2.9-0.2,5.8-0.4,8.9-0.5c3-0.1,6.1,0,9,0.3
			c1.5,0.1,3,0.3,4.5,0.5s2.9,0.4,4.4,0.6c2.9,0.4,5.9,0.9,8.9,1.8c3,0.8,6,2.2,8.5,3.9c2.6,1.7,4.9,3.8,6.9,6.1
			C1066.7,176.7,1069.4,182.2,1070.8,187.9z"/>
	</g>
	<g class="st52">
		<path class="st18" d="M1052.2,181.9c-3.8-1.7-7.8-3.3-11.8-4.1c-4-0.9-8.2-1.2-12.1-0.4s-7.6,2.5-10.7,5.1
			c-1.6,1.3-3.1,2.7-4.8,4.1c-1.6,1.4-3.4,2.8-5.5,3.8s-4.5,1.4-6.8,1.3c-2.3-0.1-4.7-0.8-6.6-1.9c-2-1.1-3.6-2.5-5.3-3.5
			s-3.5-1.7-5.4-1.9c-3.9-0.4-7.8,1.1-11.1,3.5c-3.4,2.3-6.3,5.4-9,8.6c2.2-3.6,4.8-7,8.1-9.8c1.7-1.4,3.5-2.6,5.6-3.4
			c2-0.9,4.3-1.3,6.6-1.2h0.9l0.9,0.1c0.6,0.1,1.1,0.2,1.7,0.4c1.1,0.4,2.2,0.8,3.1,1.4c2,1.1,3.6,2.4,5.4,3.3
			c1.7,0.9,3.5,1.4,5.4,1.5c1.9,0,3.7-0.3,5.4-1.1c3.4-1.6,6.3-4.7,9.8-7.3s7.7-4.6,12.1-5.2c4.4-0.6,8.8,0,12.9,1.3
			C1044.9,177.6,1048.7,179.6,1052.2,181.9z"/>
	</g>
</g>
<g id="Kõrv">
	<g>
		<path class="st26" d="M970.9,221.2c-0.4-5.1-3.1-9.2-7-10.6c-2.9-1-5.4-0.2-6.2,0c-5.9,1.9-8.2,8.7-8.8,10.6
			c-2.8,8.4-0.2,19.1,7,25.5c3.9,3.4,8.1,4.7,10.6,5.3"/>
		<path class="st53" d="M970.9,221.2c-0.4-3-1.5-6-3.7-8.1c-1.1-1.1-2.4-1.9-3.8-2.3c-1.4-0.4-3-0.4-4.4-0.1c-1.5,0.3-2.8,0.9-4,1.8
			c-1.2,0.9-2.2,2-3,3.3c-1.7,2.5-2.7,5.4-3.3,8.4c-1.1,5.9,0.2,12.2,3.4,17.4c3.1,5.2,8.5,8.9,14.4,10.4c-3-0.6-6-1.7-8.6-3.4
			s-4.8-4-6.5-6.6c-3.4-5.2-4.8-11.8-3.7-18c0.6-3.1,1.7-6.1,3.5-8.7c0.9-1.3,2-2.5,3.2-3.5c1.3-1,2.8-1.6,4.4-1.9
			c1.6-0.3,3.2-0.2,4.7,0.2c1.5,0.5,2.9,1.4,4,2.5C969.7,215.1,970.8,218.2,970.9,221.2z"/>
	</g>
</g>
<g id="Kõrv-Detail">
	<g>
		<path class="st53" d="M955.1,238.8c-2.1-2.5-3.6-5.6-4.2-9c-0.3-1.7-0.4-3.4-0.3-5.1c0.1-1.6,0.4-3.4,1.2-5
			c0.4-0.8,0.8-1.6,1.4-2.3c0.5-0.7,1.1-1.3,1.8-1.9c1.3-1.1,3-2.1,4.9-2.1c1.9-0.1,3.6,0.7,4.9,1.8c1.3,1.2,2.2,2.6,2.7,4.2
			c-0.9-1.4-1.9-2.6-3.2-3.4c-1.3-0.8-2.8-1.2-4.2-1s-2.7,0.9-3.8,2c-0.5,0.5-1.1,1.1-1.5,1.7c-0.4,0.6-0.8,1.2-1.1,1.9
			c-0.6,1.3-0.9,2.8-1.1,4.4c-0.2,1.5-0.2,3.1-0.1,4.7C952.7,232.8,953.7,235.9,955.1,238.8z"/>
	</g>
	<g>
		<path class="st54" d="M964.8,225.6c-1.1-0.5-2.3-0.7-3.4-0.6c-1.1,0.1-2.2,0.6-2.9,1.4c-0.8,0.7-1.2,1.8-1.4,2.9
			c-0.1,1.1,0.1,2.3,0.6,3.4c-0.9-0.9-1.4-2.1-1.4-3.4c0-1.3,0.5-2.6,1.5-3.6c1-0.9,2.3-1.4,3.6-1.4
			C962.6,224.3,963.9,224.8,964.8,225.6z"/>
	</g>
	<g>
		<path class="st55" d="M966.5,241.5c-0.4,0.3-0.9,0.4-1.4,0.4s-1.1-0.4-1.3-0.9c-0.5-1-0.5-1.9-0.8-2.7s-0.7-1.5-1.3-2.1
			s-1.4-1.1-2.2-1.6c0.9,0.1,1.9,0.5,2.7,1c0.8,0.6,1.4,1.5,1.8,2.4c0.3,1,0.3,1.9,0.6,2.7c0.1,0.4,0.3,0.6,0.7,0.8
			C965.6,241.5,966.1,241.5,966.5,241.5z"/>
	</g>
</g>
</svg>
