<?xml version="1.0" encoding="utf-8"?>
<!-- Generator: Adobe Illustrator 23.0.2, SVG Export Plug-In . SVG Version: 6.00 Build 0)  -->
<svg version="1.1" id="Layer_1" xmlns="http://www.w3.org/2000/svg" xmlns:xlink="http://www.w3.org/1999/xlink" x="0px" y="0px"
	 viewBox="0 0 1920 1080" style="enable-background:new 0 0 1920 1080;" xml:space="preserve">
<style type="text/css">
	.st0{fill:none;}
	.st1{fill:#E8F1FC;}
	.st2{fill:#DCE9F4;}
	.st3{fill:#EEF5FF;}
	.st4{fill:#E3EEFC;}
	.st5{fill:#7594CC;}
	.st6{fill:#2A56B7;}
	.st7{fill:#81B2E2;}
	.st8{fill:#142963;}
	.st9{fill:#0C2F4C;}
	.st10{fill:#FFFFFF;}
	.st11{fill:#FFC312;}
	.st12{fill:#0F3B87;}
	.st13{fill:#F79F1F;}
	.st14{fill:#F7F7F7;}
</style>
<g>
	<polygon class="st0" points="963.1,981 955.5,981 955.4,981 954.7,1049.1 963.9,1049.4 963.2,981 	"/>
	<polygon class="st0" points="1486.2,65.6 1486.2,103.5 1713.3,103.5 1713.3,0 1362.5,0 1362.5,65.6 	"/>
	<polygon class="st0" points="582,119.6 639,183 639,350 775,350 775,500 862.5,500 862.5,62.5 925,12.5 975,62.5 975,116.7 
		1000,100 1100,100 1100,299.7 1150,299.7 1150,75 1200,75 1200,0 524.1,0 524.1,119.6 	"/>
	<path class="st1" d="M766,541.5V554H639v25h17.8c2.9-3.2,4.3-3.7,5.7-4c2.5-0.4,2.6,0.6,5.2,0.2c6-1.1,6.4-6.9,11.3-8.3
		c5.8-1.6,9.8,5.2,14.2,3.2c3.7-1.8,2.1-7.3,6-9.5c4.1-2.3,11.8,0.6,14,5.5c2.3,5-2.4,9.7-0.2,12c0.4,0.4,1.1,0.7,1.9,0.9h3.2
		c3.6-0.6,7.8-2.8,9.4-6.2c1.9-4.1-1.1-7.6,1-9.7c2.1-2,7.4-1.1,10.8,1.7c4.6,3.7,2.4,8.2,7.2,13.2c0.4,0.4,0.7,0.7,1.1,1H766v12.5
		V604H639v56.7l117,5.3v9h19V500V350H639v191.5H766z"/>
	<path class="st1" d="M953.4,675h5.2h1.4h2.5V125l12.5-8.3V62.5H862.5V500v175H953.4z M887.5,100H950v500h-62.5V100z"/>
	<path class="st2" d="M1100,675V299.7V100h-100v575H1100z M1025,212.5h12.5v25H1025V212.5z M1025,250h12.5v25H1025V250z"/>
	<polygon class="st3" points="962.5,675 965.2,675 975,675 1000,675 1000,100 975,116.7 962.5,125 	"/>
	<rect x="775" y="500" class="st1" width="87.5" height="175"/>
	<path class="st1" d="M1201,75v591h81.6V153l46.7-87.4v0h33.2V0H1200v75H1201z M1300,62.5h12.5v25H1300V62.5z M1262.5,62.5h12.5v25
		h-12.5V62.5z M1262.5,112.5h12.5v25h-12.5V112.5z M1262.5,162.5h12.5v25h-12.5V162.5z M1262.5,212.5h12.5v25h-12.5V212.5z
		 M1262.5,262.5h12.5v25h-12.5V262.5z M1262.5,312.5h12.5v25h-12.5V312.5z M1225,62.5h12.5v25H1225V62.5z M1225,112.5h12.5v25H1225
		V112.5z M1225,162.5h12.5v25H1225V162.5z M1225,212.5h12.5v25H1225V212.5z M1225,262.5h12.5v25H1225V262.5z M1225,312.5h12.5v25
		H1225V312.5z"/>
	<polygon class="st1" points="925,12.5 862.5,62.5 975,62.5 	"/>
	<rect x="887.5" y="100" class="st4" width="62.5" height="500"/>
	<rect x="1100" y="299.7" class="st3" width="50" height="375.3"/>
	<polygon class="st1" points="1162.6,675 1162.6,666 1201,666 1201,75 1200,75 1150,75 1150,299.7 1150,675 	"/>
	<path class="st5" d="M713,578.1c-2.2-2.3,2.5-7,0.2-12c-2.2-4.9-9.9-7.8-14-5.5c-3.9,2.2-2.3,7.7-6,9.5c-4.4,2-8.4-4.8-14.2-3.2
		c-4.9,1.4-5.3,7.2-11.3,8.3c-2.6,0.4-2.7-0.6-5.2-0.2c-1.4,0.3-2.8,0.8-5.7,4h58.1C714.1,578.8,713.4,578.5,713,578.1z"/>
	<path class="st5" d="M746.5,578c-4.8-5-2.6-9.5-7.2-13.2c-3.4-2.8-8.7-3.7-10.8-1.7c-2.1,2.1,0.9,5.6-1,9.7
		c-1.6,3.4-5.8,5.6-9.4,6.2h29.5C747.2,578.7,746.9,578.4,746.5,578z"/>
	<rect x="639" y="591.5" class="st6" width="127" height="12.5"/>
	<rect x="639" y="541.5" class="st6" width="127" height="12.5"/>
	<polygon class="st3" points="766,591.5 766,579 747.6,579 718.1,579 714.9,579 656.8,579 639,579 639,591.5 	"/>
	<rect x="1025" y="212.5" class="st7" width="12.5" height="25"/>
	<rect x="1025" y="250" class="st7" width="12.5" height="25"/>
	<polygon class="st8" points="297,981 310.5,972 955.5,972 958.6,675 955.5,962.5 938.8,962.5 953.4,675 862.5,675 775,675 756,675 
		756,675.1 228,1024.7 289.1,1026.7 290.1,1026 333,1026 330.3,1028.1 380.4,1029.8 384.9,1026 432,1026 426.2,1031.3 477.6,1033.1 
		484.5,1026 531,1026 523.4,1034.6 555.8,1035.7 563.7,1026 612,1026 603.9,1037.3 652.9,1038.9 660.9,1026 711,1026 703.5,1040.6 
		752.6,1042.3 759.3,1026 810,1026 804.4,1044 858.5,1045.9 862.5,1026 909,1026 906.7,1047.5 954.7,1049.1 955.4,981 	"/>
	<polygon class="st9" points="756,675 756,666 181.9,1023.1 228,1024.7 756,675.1 	"/>
	<polygon class="st6" points="181.9,1023.1 756,666 639,660.7 639,681.8 582,707 524.1,707 524.1,731.6 475,753.2 475,812.5 
		462.5,812.5 462.5,758.7 291,834 237,834 237,893.1 172.7,924.5 90,924.5 90,834 0,834 0,1017 	"/>
	<polygon class="st10" points="955.5,972 310.5,972 297,981 955.4,981 955.5,981 955.6,972 	"/>
	<polygon class="st10" points="290.1,1026 289.1,1026.7 330.3,1028.1 333,1026 	"/>
	<polygon class="st10" points="384.9,1026 380.4,1029.8 426.2,1031.3 432,1026 	"/>
	<polygon class="st10" points="484.5,1026 477.6,1033.1 523.4,1034.6 531,1026 	"/>
	<polygon class="st10" points="563.7,1026 555.8,1035.7 603.9,1037.3 612,1026 	"/>
	<polygon class="st10" points="660.9,1026 652.9,1038.9 703.5,1040.6 711,1026 	"/>
	<polygon class="st10" points="759.3,1026 752.6,1042.3 804.4,1044 810,1026 	"/>
	<polygon class="st10" points="862.5,1026 858.5,1045.9 906.7,1047.5 909,1026 	"/>
	<polygon class="st10" points="955.5,962.5 958.6,675 953.4,675 938.8,962.5 	"/>
	<polygon class="st8" points="955.6,972 958.6,972 958.6,675 955.5,972 	"/>
	<polygon class="st8" points="1162.6,675 1150,675 1100,675 1000,675 975,675 965.2,675 979.8,962.5 963.1,962.5 960,675 963.1,972 
		1608,972 1621.6,981 963.2,981 963.9,1049.4 1012.2,1051 1009.6,1026 1056.1,1026 1061.4,1052.7 1117.4,1054.6 1108.6,1026 
		1159.3,1026 1171.8,1056.4 1224,1058.1 1207.6,1026 1257.7,1026 1278.6,1060 1332.2,1061.8 1306.6,1026 1354.9,1026 1385.5,1063.6 
		1421.8,1064.8 1387.6,1026 1434.1,1026 1473.7,1066.5 1532.7,1068.5 1486.6,1026 1533.7,1026 1586.1,1070.3 1645.3,1072.3 
		1585.6,1026 1628.5,1026 1694.6,1074 1768.9,1076.5 1162.6,675.1 	"/>
	<polygon class="st9" points="1162.6,675.1 1768.9,1076.5 1823.9,1078.3 1162.6,666 1162.6,675 	"/>
	<polygon class="st6" points="1839.6,973.5 1713.3,911.8 1713.3,790.7 1612.5,790.7 1612.5,887.5 1598,887.5 1598,790.7 
		1465.2,790.7 1465.2,790.6 1360,739.2 1360,714 1329.3,714 1329.3,714 1282.6,692.9 1282.6,666 1201,666 1162.6,666 1823.9,1078.3 
		1874.5,1080 1920,1080 1920,973.5 1839.6,973.5 	"/>
	<polygon class="st10" points="963,972 960,972 958.6,972 955.6,972 955.5,981 963.1,981 963.2,981 1621.6,981 1608,972 963.1,972 	
		"/>
	<polygon class="st10" points="1585.6,1026 1645.3,1072.3 1694.6,1074 1628.5,1026 	"/>
	<polygon class="st10" points="1486.6,1026 1532.7,1068.5 1586.1,1070.3 1533.7,1026 	"/>
	<polygon class="st10" points="1387.6,1026 1421.8,1064.8 1473.7,1066.5 1434.1,1026 	"/>
	<polygon class="st10" points="1306.6,1026 1332.2,1061.8 1385.5,1063.6 1354.9,1026 	"/>
	<polygon class="st10" points="1207.6,1026 1224,1058.1 1278.6,1060 1257.7,1026 	"/>
	<polygon class="st10" points="1108.6,1026 1117.4,1054.6 1171.8,1056.4 1159.3,1026 	"/>
	<polygon class="st10" points="1009.6,1026 1012.2,1051 1061.4,1052.7 1056.1,1026 	"/>
	<polygon class="st10" points="979.8,962.5 965.2,675 962.5,675 960,675 963.1,962.5 	"/>
	<polygon class="st8" points="960,972 963,972 963.1,972 960,675 958.6,675 958.6,972 	"/>
	<polygon class="st3" points="1282.6,692.9 1329.3,714 1329.3,65.6 1329.3,65.6 1329.3,65.6 1282.6,153 1282.6,666 	"/>
	<polygon class="st1" points="1329.3,714 1329.3,714 1360,714 1360,226.3 1465.2,103.4 1465.2,103.5 1486.2,103.5 1486.2,65.6 
		1362.5,65.6 1329.3,65.6 1329.3,65.6 	"/>
	<polygon class="st3" points="1465.2,103.5 1465.2,103.5 1465.2,103.4 1360,226.3 1360,714 1360,739.2 1465.2,790.6 	"/>
	<path class="st1" d="M1465.2,103.5v687.1v0.1H1598V408.1h14.5v382.6h100.8V103.5h-227.1H1465.2L1465.2,103.5z M1481.8,350h14.5
		l116.2,58.1H1598L1481.8,350l87.1,43.6h-29l-58.1-29.1V350z"/>
	<polygon class="st3" points="1713.3,790.7 1713.3,911.8 1839.6,973.5 1839.6,0 1713.3,0 1713.3,103.5 	"/>
	<polygon class="st1" points="1839.6,973.5 1839.6,973.5 1920,973.5 1920,0 1839.6,0 	"/>
	<rect x="1225" y="312.5" class="st7" width="12.5" height="25"/>
	<rect x="1225" y="262.5" class="st7" width="12.5" height="25"/>
	<rect x="1225" y="212.5" class="st7" width="12.5" height="25"/>
	<rect x="1225" y="162.5" class="st7" width="12.5" height="25"/>
	<rect x="1225" y="112.5" class="st7" width="12.5" height="25"/>
	<rect x="1225" y="62.5" class="st7" width="12.5" height="25"/>
	<rect x="1262.5" y="312.5" class="st7" width="12.5" height="25"/>
	<rect x="1262.5" y="262.5" class="st7" width="12.5" height="25"/>
	<rect x="1262.5" y="212.5" class="st7" width="12.5" height="25"/>
	<rect x="1262.5" y="162.5" class="st7" width="12.5" height="25"/>
	<rect x="1262.5" y="112.5" class="st7" width="12.5" height="25"/>
	<rect x="1262.5" y="62.5" class="st7" width="12.5" height="25"/>
	<rect x="1300" y="62.5" class="st7" width="12.5" height="25"/>
	<polygon class="st3" points="582,707 639,681.8 639,660.7 639,604 639,591.5 639,579 639,554 639,541.5 639,350 639,183 582,119.6 
			"/>
	<polygon class="st1" points="575,350 575,362.5 525,387.5 524.1,387.5 524.1,707 582,707 582,119.6 524.1,119.6 524.1,369.2 
		562.5,350 	"/>
	<path class="st3" d="M504,88.8v91.5L337.5,49V0H291v834l171.5-75.3V400l12.5-6.3V177.9l25,18.5v184.9l24.1-12V119.6V0H414.3
		L504,88.8z M387.5,710.1l-50,14.9V88.8l50,36.2V710.1z M412.5,700V134.7l37.5,27.8V689L412.5,700z"/>
	<polygon class="st3" points="524.1,387.5 500,387.5 500,676.3 475,683.9 475,753.2 524.1,731.6 524.1,707 	"/>
	<polygon class="st1" points="237,155 237,257.4 237,277 237,384.3 237,400 237,507.4 237,525 237,630.4 237,651 237,834 291,834 
		291,0 237,0 237,136.1 	"/>
	<rect class="st1" width="90" height="834"/>
	<polygon class="st3" points="220.9,62 220.9,82 172.7,52.2 172.7,166.6 215.7,187 215.7,204.4 172.7,185 172.7,299.2 214.4,312 
		214.4,333.5 172.7,322 172.7,436.8 214.4,442.2 214.4,461.4 172.7,457 172.7,573.6 211,572 211,592.3 172.7,595 172.7,708.2 
		211,700 211,719.8 172.7,729 172.7,924.5 237,893.1 237,834 237,651 191.9,657.9 191.9,636 237,630.4 237,525 184,523.9 184,505 
		237,507.4 237,400 193.6,391.6 193.6,375 237,384.3 237,277 204.9,265.3 204.9,244.9 237,257.4 237,155 194.2,132.2 194.2,112.2 
		237,136.1 237,0 172.7,0 172.7,30.8 	"/>
	<polygon class="st1" points="90,834 90,924.5 172.7,924.5 172.7,729 172.7,708.2 172.7,595 172.7,573.6 172.7,457 172.7,436.8 
		172.7,322 172.7,299.2 172.7,185 172.7,166.6 172.7,52.2 172.7,30.8 172.7,0 90,0 	"/>
	<polygon class="st11" points="387.5,125 337.5,88.8 337.5,725 387.5,710.1 	"/>
	<polygon class="st11" points="500,387.5 475,400 475,683.9 500,676.3 	"/>
	<polygon class="st11" points="500,196.4 475,177.9 475,393.8 500,381.3 	"/>
	<polygon class="st11" points="450,162.5 412.5,134.7 412.5,700 450,689 	"/>
	<polygon class="st10" points="504,180.3 504,88.8 414.3,0 337.5,0 337.5,49 	"/>
	<polygon class="st10" points="211,700 172.7,708.2 172.7,729 211,719.8 	"/>
	<polygon class="st10" points="191.9,636 191.9,657.9 237,651 237,630.4 	"/>
	<polygon class="st10" points="211,572 172.7,573.6 172.7,595 211,592.3 	"/>
	<polygon class="st10" points="184,505 184,523.9 237,525 237,507.4 	"/>
	<polygon class="st10" points="214.4,442.2 172.7,436.8 172.7,457 214.4,461.4 	"/>
	<polygon class="st10" points="193.6,375 193.6,391.6 237,400 237,384.3 	"/>
	<polygon class="st10" points="214.4,312 172.7,299.2 172.7,322 214.4,333.5 	"/>
	<polygon class="st10" points="204.9,244.9 204.9,265.3 237,277 237,257.4 	"/>
	<polygon class="st10" points="215.7,187 172.7,166.6 172.7,185 215.7,204.4 	"/>
	<polygon class="st10" points="194.2,112.2 194.2,132.2 237,155 237,136.1 	"/>
	<polygon class="st10" points="220.9,62 172.7,30.8 172.7,52.2 220.9,82 	"/>
	<polygon class="st12" points="475,812.5 475,753.2 475,683.9 475,400 462.5,400 462.5,758.7 462.5,812.5 	"/>
	<polygon class="st12" points="500,387.5 575,350 562.5,350 524.1,369.2 500,381.3 475,393.8 462.5,400 475,400 	"/>
	<polygon class="st13" points="525,387.5 575,362.5 575,350 500,387.5 524.1,387.5 	"/>
	<polygon class="st12" points="1612.5,408.1 1598,408.1 1598,790.7 1598,887.5 1612.5,887.5 1612.5,790.7 	"/>
	<polygon class="st12" points="1598,408.1 1612.5,408.1 1496.3,350 1481.8,350 	"/>
	<polygon class="st13" points="1539.9,393.6 1568.9,393.6 1481.8,350 1481.8,364.5 	"/>
	<polygon class="st14" points="1823.9,1078.3 1768.9,1076.5 1694.6,1074 1645.3,1072.3 1586.1,1070.3 1532.7,1068.5 1473.7,1066.5 
		1421.8,1064.8 1385.5,1063.6 1332.2,1061.8 1278.6,1060 1224,1058.1 1171.8,1056.4 1117.4,1054.6 1061.4,1052.7 1012.2,1051 
		963.9,1049.4 954.7,1049.1 906.7,1047.5 858.5,1045.9 804.4,1044 752.6,1042.3 703.5,1040.6 652.9,1038.9 603.9,1037.3 
		555.8,1035.7 523.4,1034.6 477.6,1033.1 426.2,1031.3 380.4,1029.8 330.3,1028.1 289.1,1026.7 228,1024.7 181.9,1023.1 0,1017 
		0,1080 215.7,1080 263.3,1080 321,1080 373.3,1080 431.7,1080 483.3,1080 519.7,1080 573.3,1080 627.7,1080 683.3,1080 737,1080 
		793.3,1080 851.7,1080 903.3,1080 1015.2,1080 1066.9,1080 1125.2,1080 1181.6,1080 1235.2,1080 1290.9,1080 1345.2,1080 
		1398.9,1080 1435.2,1080 1486.9,1080 1545.2,1080 1597.6,1080 1655.2,1080 1702.9,1080 1874.5,1080 	"/>
</g>
</svg>
