<?xml version="1.0" encoding="utf-8"?>
<!-- Generator: Adobe Illustrator 23.0.1, SVG Export Plug-In . SVG Version: 6.00 Build 0)  -->
<svg version="1.1" xmlns="http://www.w3.org/2000/svg" xmlns:xlink="http://www.w3.org/1999/xlink" x="0px" y="0px"
	 viewBox="0 0 1920 1080" style="enable-background:new 0 0 1920 1080;" xml:space="preserve">
<style type="text/css">
	.st0{display:none;}
	.st1{fill:url(#SVGID_1_);}
	.st2{fill:url(#SVGID_2_);}
	.st3{fill:url(#SVGID_3_);}
	.st4{fill:url(#SVGID_4_);}
	.st5{fill:url(#SVGID_5_);}
	.st6{fill:none;stroke:url(#SVGID_6_);stroke-width:30;stroke-linecap:round;stroke-linejoin:round;stroke-miterlimit:10;}
	.st7{fill:none;stroke:url(#SVGID_7_);stroke-width:30;stroke-linecap:round;stroke-linejoin:round;stroke-miterlimit:10;}
</style>
<g id="Layer_1" class="st0">
</g>
<g id="Layer_3">
	<linearGradient id="SVGID_1_" gradientUnits="userSpaceOnUse" x1="959.0126" y1="-5.029" x2="961.0126" y2="1098.9709">
		<stop  offset="0" style="stop-color:#123C7B"/>
		<stop  offset="1" style="stop-color:#062045"/>
	</linearGradient>
	<rect class="st1" width="1920" height="1080"/>
</g>
<g id="Layer_2">
	<linearGradient id="SVGID_2_" gradientUnits="userSpaceOnUse" x1="847.8521" y1="386.5946" x2="955.8521" y2="-57.4054">
		<stop  offset="0" style="stop-color:#123C7B"/>
		<stop  offset="1" style="stop-color:#062045"/>
	</linearGradient>
	<path class="st2" d="M-71,451C60.71,497.85,204.43,112.84,547,93c69.44-4.02,128.54,8.03,246,32c205.17,41.86,248.35,89.35,422,128
		c86.25,19.2,225.1,48.84,392,24c75.09-11.18,360.67-53.68,404-202c43.44-148.69-173.23-346.72-336-444
		c-380.74-227.57-818.26-114.11-1212-12C3.72-261.9-84.24-121.56-109-77C-221.76,125.93-174.91,414.04-71,451z"/>
	<linearGradient id="SVGID_3_" gradientUnits="userSpaceOnUse" x1="726.8589" y1="243.9451" x2="884.1923" y2="-168.0549">
		<stop  offset="0" style="stop-color:#123C7B"/>
		<stop  offset="1" style="stop-color:#062045"/>
	</linearGradient>
	<path class="st3" d="M-293,121c77.8,68.66,181.39,4.44,476-30c148.58-17.37,319.76-36.12,520,2c135.41,25.78,123.64,47.02,336,106
		c202.57,56.26,343.29,95.35,514,84c89.01-5.92,382.91-25.46,443-174c68.86-170.21-194.56-447.35-411-590
		C1041.41-839.28,385.75-618.46,227-565C53.33-506.51-278.19-394.86-341-141C-359.76-65.15-363.33,58.93-293,121z"/>
	<linearGradient id="SVGID_4_" gradientUnits="userSpaceOnUse" x1="1028.1761" y1="186.1647" x2="1105.5094" y2="-12.5019">
		<stop  offset="0" style="stop-color:#123C7B"/>
		<stop  offset="1" style="stop-color:#062045"/>
	</linearGradient>
	<path class="st4" d="M209-323c42.25,137.76,346.11,128.65,590,368c18.93,18.57,51.14,52.04,104,88
		c60.93,41.45,149.02,86.03,330,117c172.9,29.59,328.65,56.24,523,7c118.76-30.09,240.58-60.95,327-158
		c166.14-186.58,133.03-540.96-12-756c-273.97-406.23-991.17-380.15-1428-152C412.27-688.49,166.15-462.71,209-323z"/>
	<linearGradient id="SVGID_5_" gradientUnits="userSpaceOnUse" x1="1487.8984" y1="373.1776" x2="1537.2317" y2="-101.489">
		<stop  offset="0" style="stop-color:#123C7B"/>
		<stop  offset="1" style="stop-color:#062045"/>
	</linearGradient>
	<path class="st5" d="M703-371c-34.27,193.15,301.48,420.45,474,506c178.93,88.73,330.11,98.3,364,100
		c50.06,2.5,268.77,9.07,498-126c41.03-24.18,422.44-253.83,380-470c-46.31-235.9-565.36-292.58-670-304
		C1323.95-711.41,744.84-606.81,703-371z"/>
</g>
<g id="Layer_4">
	<linearGradient id="SVGID_6_" gradientUnits="userSpaceOnUse" x1="912.3934" y1="577.6066" x2="1008.6066" y2="481.3934">
		<stop  offset="0" style="stop-color:#86D901"/>
		<stop  offset="1" style="stop-color:#113C9D"/>
	</linearGradient>
	<polyline class="st6" points="918,562 1012,562 1012,506 956,469 937,469 	"/>
	<linearGradient id="SVGID_7_" gradientUnits="userSpaceOnUse" x1="867.614" y1="469.5889" x2="969.7932" y2="646.5684">
		<stop  offset="0" style="stop-color:#EB9D02"/>
		<stop  offset="1" style="stop-color:#C20160"/>
	</linearGradient>
	<polyline class="st7" points="956,469 899.5,468.5 843.5,524.5 843.5,581.5 899.5,637.5 955.5,637.5 	"/>
</g>
</svg>
